<svg xmlns="http://www.w3.org/2000/svg" xmlns:xlink="http://www.w3.org/1999/xlink" width="238.166" height="199.312" viewBox="0 0 238.166 199.312">
  <defs>
    <filter id="Union_10" x="0" y="0" width="238.166" height="199.312" filterUnits="userSpaceOnUse">
      <feOffset dy="20" input="SourceAlpha"/>
      <feGaussianBlur stdDeviation="25" result="blur"/>
      <feFlood flood-color="#39b7d7" flood-opacity="0.302"/>
      <feComposite operator="in" in2="blur"/>
      <feComposite in="SourceGraphic"/>
    </filter>
  </defs>
  <g transform="matrix(1, 0, 0, 1, 0, 0)" filter="url(#Union_10)">
    <path id="Union_10-2" data-name="Union 10" d="M-2103.9,42.977a45.566,45.566,0,0,1-16.884,3.079,44.33,44.33,0,0,1-18.79-3.914,16.464,16.464,0,0,1-8.831-6.805A12.2,12.2,0,0,1-2151,28q0-.352.022-.7-.022-.431-.022-.868a16.449,16.449,0,0,1,16.413-16.485,16.341,16.341,0,0,1,5,.779q1.238-.225,2.519-.387A21.333,21.333,0,0,1-2108.8,0a21.194,21.194,0,0,1,10.275,2.641A24.454,24.454,0,0,1-2087.433,0a24.627,24.627,0,0,1,24.6,24.656,24.627,24.627,0,0,1-24.6,24.656A24.476,24.476,0,0,1-2103.9,42.977Z" transform="translate(2226 55)" fill="#fff"/>
  </g>
</svg>
