<svg xmlns="http://www.w3.org/2000/svg" xmlns:xlink="http://www.w3.org/1999/xlink" width="301" height="238" viewBox="0 0 301 238">
  <defs>
    <filter id="Union_9" x="0" y="0" width="301" height="238" filterUnits="userSpaceOnUse">
      <feOffset dy="20" input="SourceAlpha"/>
      <feGaussianBlur stdDeviation="25" result="blur"/>
      <feFlood flood-color="#39b7d7" flood-opacity="0.302"/>
      <feComposite operator="in" in2="blur"/>
      <feComposite in="SourceGraphic"/>
    </filter>
  </defs>
  <g transform="matrix(1, 0, 0, 1, 0, 0)" filter="url(#Union_9)">
    <path id="Union_9-2" data-name="Union 9" d="M-2129.061,80.523a31.579,31.579,0,0,1-16.949-13A23.259,23.259,0,0,1-2151,53.5q0-.673.043-1.34-.043-.824-.043-1.659A31.5,31.5,0,0,1-2119.5,19a31.488,31.488,0,0,1,9.6,1.488q2.377-.43,4.835-.74A40.979,40.979,0,0,1-2070,0a41.011,41.011,0,0,1,40.325,33.548A24.6,24.6,0,0,1-2024.5,33,24.5,24.5,0,0,1-2000,57.5,24.5,24.5,0,0,1-2024.5,82a24.46,24.46,0,0,1-19.327-9.44,41.055,41.055,0,0,1-7.648,5.026C-2062.008,84.011-2076.72,88-2093,88-2106.629,88-2119.161,85.2-2129.061,80.523Z" transform="translate(2226 55)" fill="#fff"/>
  </g>
</svg>
