<svg xmlns="http://www.w3.org/2000/svg" width="217.694" height="34" viewBox="0 0 217.694 34"><defs><style>.a{fill:#252f3e;}.b{fill:#f90;}.b,.h{fill-rule:evenodd;}.c{fill:#323e48;}.d,.h{fill:#287a9f;}.e{fill:#fccb0e;}.f{fill:#f68e1f;}.g{fill:#ea2127;}</style></defs><g transform="translate(-122.5 -320)"><g transform="translate(122.5 320)"><g transform="translate(0 4.25)"><path class="a" d="M136.52,338.257a4.017,4.017,0,0,0,.161,1.266,6.622,6.622,0,0,0,.459,1.018.657.657,0,0,1,.1.322.543.543,0,0,1-.273.422l-.893.6a.711.711,0,0,1-.372.124.593.593,0,0,1-.422-.2,3.236,3.236,0,0,1-.509-.658q-.211-.359-.434-.831a5.241,5.241,0,0,1-4.169,1.96,3.876,3.876,0,0,1-2.829-1.018,4.012,4.012,0,0,1,.248-5.645,5.166,5.166,0,0,1,3.474-1.1,10.589,10.589,0,0,1,1.5.112q.782.112,1.626.31v-1.042a3.118,3.118,0,0,0-.67-2.271,3.248,3.248,0,0,0-2.308-.657,6.572,6.572,0,0,0-1.526.186,10.894,10.894,0,0,0-1.526.484,3.862,3.862,0,0,1-.5.186,1.024,1.024,0,0,1-.223.037q-.3,0-.3-.446v-.7a.931.931,0,0,1,.1-.5,1.029,1.029,0,0,1,.4-.3,9.292,9.292,0,0,1,1.787-.645,8.691,8.691,0,0,1,2.209-.273,5.138,5.138,0,0,1,3.71,1.154,4.678,4.678,0,0,1,1.179,3.486Zm-5.757,2.159a4.564,4.564,0,0,0,1.464-.261,3.1,3.1,0,0,0,1.34-.906,2.242,2.242,0,0,0,.484-.906,4.787,4.787,0,0,0,.137-1.229v-.6a12.26,12.26,0,0,0-1.3-.236,10.58,10.58,0,0,0-1.328-.087,3.275,3.275,0,0,0-2.109.571,2.344,2.344,0,0,0-.174,3.139A2.043,2.043,0,0,0,130.763,340.415Zm11.391,1.538a.88.88,0,0,1-.546-.136,1.1,1.1,0,0,1-.3-.559l-3.325-10.968a2.519,2.519,0,0,1-.124-.571.307.307,0,0,1,.348-.348h1.39a.877.877,0,0,1,.558.136,1.184,1.184,0,0,1,.285.559l2.383,9.38,2.209-9.38a.993.993,0,0,1,.273-.559.934.934,0,0,1,.57-.136h1.142a.935.935,0,0,1,.57.136,1,1,0,0,1,.273.559l2.234,9.5,2.457-9.5a1.184,1.184,0,0,1,.285-.559.877.877,0,0,1,.559-.136h1.315a.307.307,0,0,1,.347.348,1.15,1.15,0,0,1-.025.223,3.123,3.123,0,0,1-.1.348l-3.425,10.968a1.112,1.112,0,0,1-.3.559.883.883,0,0,1-.546.136H149.45a.875.875,0,0,1-.571-.149,1.077,1.077,0,0,1-.273-.571L146.4,332.1l-2.184,9.132a1.077,1.077,0,0,1-.273.571.874.874,0,0,1-.57.149Zm18.215.372a9.618,9.618,0,0,1-2.184-.248,6.337,6.337,0,0,1-1.638-.571.824.824,0,0,1-.521-.794v-.72q0-.446.323-.446a.764.764,0,0,1,.261.05c.091.033.211.083.36.149a7.486,7.486,0,0,0,1.564.5,8.351,8.351,0,0,0,1.687.174,3.821,3.821,0,0,0,2.072-.472,1.5,1.5,0,0,0,.732-1.34,1.371,1.371,0,0,0-.384-.993,3.662,3.662,0,0,0-1.427-.744l-2.06-.645a4.394,4.394,0,0,1-2.27-1.44,3.359,3.359,0,0,1-.707-2.059,3.151,3.151,0,0,1,.385-1.576,3.815,3.815,0,0,1,1.017-1.166,4.492,4.492,0,0,1,1.477-.732A6.306,6.306,0,0,1,160.84,329a7.555,7.555,0,0,1,.955.062q.484.062.918.161t.806.223a3.69,3.69,0,0,1,.6.248,1.359,1.359,0,0,1,.422.348.8.8,0,0,1,.124.472v.67q0,.446-.323.447a1.5,1.5,0,0,1-.546-.174,6.594,6.594,0,0,0-2.73-.546,3.723,3.723,0,0,0-1.886.4,1.362,1.362,0,0,0-.67,1.266,1.346,1.346,0,0,0,.422,1.005,4.212,4.212,0,0,0,1.564.782l2.01.646a4.334,4.334,0,0,1,2.2,1.365,3.205,3.205,0,0,1,.657,1.985,3.586,3.586,0,0,1-.372,1.65,3.753,3.753,0,0,1-1.03,1.253,4.625,4.625,0,0,1-1.576.794A7.036,7.036,0,0,1,160.369,342.326Z" transform="translate(-124.503 -329)"/><g transform="translate(0 15.896)"><path class="b" d="M161.047,367.927c-4.669,3.445-11.438,5.278-17.266,5.278a31.247,31.247,0,0,1-21.092-8.046c-.437-.395-.047-.934.478-.628a42.455,42.455,0,0,0,21.1,5.6,41.981,41.981,0,0,0,16.1-3.294C161.158,366.5,161.82,367.356,161.047,367.927Z" transform="translate(-122.5 -363.601)"/><path class="b" d="M201.718,364.77c-.6-.765-3.947-.362-5.453-.182-.456.055-.527-.344-.116-.632,2.673-1.877,7.052-1.335,7.561-.706s-.135,5.024-2.639,7.119c-.385.322-.752.151-.581-.275C201.054,368.686,202.315,365.535,201.718,364.77Z" transform="translate(-161.228 -362.662)"/></g></g><g transform="translate(55.047)"><rect class="c" width="0.472" height="34"/></g></g><g transform="translate(190.536 326.397)"><path class="d" d="M266.576,361.3l9.416-5.3,9.416,5.3-9.416,5.3-9.416-5.3Z" transform="translate(-266.576 -345.396)"/><path class="e" d="M271.284,339.159l-4.707,2.65,4.708,2.651,4.707-2.65-4.709-2.65Z" transform="translate(-266.577 -336.508)"/><path class="f" d="M281.254,333.546l-4.707,2.65,4.708,2.651,4.707-2.65-4.709-2.65Z" transform="translate(-271.839 -333.546)"/><path class="g" d="M291.223,339.159l-4.707,2.65,4.708,2.651,4.707-2.65-4.709-2.65Z" transform="translate(-277.1 -336.508)"/><path class="h" d="M329.146,338.912v15.772h-2.613V338.912Zm4.6,15.771h2.388V344.432l3.447,10.251h2.478V338.912h-2.388v9.756l-3.312-9.756h-2.613v15.772Zm31.385-13.473v-2.3h-7.886v2.3h2.636v13.473h2.614V341.211Zm6.219,4.934v-4.934h1.374c.857,0,1.443.315,1.443,1.442v2.05c0,1.127-.586,1.442-1.443,1.442Zm3.312,8.539h2.659l-2.253-6.692a2.894,2.894,0,0,0,1.712-2.929v-2.816c0-2.388-1.577-3.335-3.965-3.335h-4.078v15.772h2.614V348.4h1.307l2.005,6.286Zm14.306-3.154V338.912h-2.613v12.212c0,1.127-.5,1.442-1.352,1.442s-1.352-.315-1.352-1.442V338.912h-2.614V351.53c0,2.456,1.532,3.334,3.92,3.334h.091c2.388,0,3.92-.9,3.92-3.334Zm12.348,0v-2.207H398.7v1.8c0,1.1-.541,1.442-1.375,1.442s-1.374-.338-1.374-1.442v-8.652c0-1.1.541-1.442,1.374-1.442s1.375.338,1.375,1.442v1.419h2.614v-1.824c0-2.344-1.577-3.334-3.965-3.334H397.3c-2.388,0-3.965.991-3.965,3.334v9.463c0,2.456,1.577,3.334,3.965,3.334h.045c2.388,0,3.965-.9,3.965-3.334Zm11.22-10.319v-2.3h-7.886v2.3h2.636v13.473H409.9V341.211Zm11.491,10.319V338.912h-2.613v12.212c0,1.127-.5,1.442-1.352,1.442s-1.352-.315-1.352-1.442V338.912h-2.614V351.53c0,2.456,1.532,3.334,3.92,3.334h.09c2.389,0,3.92-.9,3.92-3.334Zm7.073-5.385v-4.934h1.374c.857,0,1.442.315,1.442,1.442v2.05c0,1.127-.586,1.442-1.442,1.442Zm3.312,8.539h2.658l-2.253-6.692a2.9,2.9,0,0,0,1.713-2.929v-2.816c0-2.388-1.577-3.335-3.966-3.335h-4.078v15.772H431.1V348.4H432.4l2.005,6.286Zm-82.935-11.2h2.568v-1.509c0-2.343-1.712-3.245-3.875-3.245h-.045c-2.163,0-3.875.9-3.875,3.245v2.073c0,1.645.879,2.366,2.411,3.245l1.825,1.037a1.607,1.607,0,0,1,1.036,1.644v1.24a1.353,1.353,0,1,1-2.7,0v-1.328h-2.568v1.689c0,2.456,1.51,3.289,3.9,3.289h.045c2.389,0,3.9-.856,3.9-3.289V349.3c0-1.69-.9-2.388-2.411-3.244l-1.847-1.036a1.59,1.59,0,0,1-1.014-1.6v-1.081a1.329,1.329,0,1,1,2.659,0v1.148ZM440.9,354.674h6.98v-2.3H443.51v-4.548h3.6v-2.3h-3.6v-4.323h4.3v-2.3H440.9v15.762Z" transform="translate(-298.22 -336.283)"/></g></g></svg>