<svg xmlns="http://www.w3.org/2000/svg" xmlns:xlink="http://www.w3.org/1999/xlink" width="688.599" height="332.954" viewBox="0 0 688.599 332.954"><defs><style>.a,.g{fill:#444;}.a{opacity:0.5;}.b{fill:#facb13;}.c{fill:#f68e20;}.d{fill:#f0f2f3;}.e{fill:#afafaf;}.f{fill:#156380;opacity:0.85;}.h{fill:#fff;}.i{fill:none;stroke:#f0f;stroke-miterlimit:10;}.j,.n,.p,.r,.s,.t,.v,.w,.x,.y{mix-blend-mode:screen;}.j,.n,.p,.r,.s,.t,.u,.v,.w,.x,.y{isolation:isolate;}.k,.w{fill:url(#a);}.l{fill:url(#c);}.m{fill:#f2f2f2;}.n{fill:url(#g);}.o{fill:#e72429;}.p{fill:url(#h);}.q{fill:#fbb03b;}.r{fill:url(#i);}.s{fill:url(#j);}.t{fill:url(#k);}.u{mix-blend-mode:multiply;}.v{fill:url(#l);}.x{fill:url(#p);}.y{fill:url(#q);}</style><linearGradient id="a" y1="0.5" x2="1" y2="0.5" gradientUnits="objectBoundingBox"><stop offset="0" stop-color="#fff"/><stop offset="1"/></linearGradient><linearGradient id="c" x1="0" y1="0.5" y2="0.5" xlink:href="#a"/><linearGradient id="g" x1="0.513" y1="0.333" x2="0.485" y2="0.719" xlink:href="#a"/><linearGradient id="h" x1="0.596" y1="0.13" x2="0.383" y2="0.916" xlink:href="#a"/><linearGradient id="i" x1="0.563" y1="0.092" x2="0.373" y2="1.089" xlink:href="#a"/><linearGradient id="j" x1="0.615" y1="0.081" x2="0.271" y2="1.067" xlink:href="#a"/><linearGradient id="k" x1="0.455" y1="-0.54" x2="0.53" y2="1.069" xlink:href="#a"/><linearGradient id="l" x1="0.498" y1="0.101" x2="0.5" y2="0.596" xlink:href="#a"/><linearGradient id="p" x1="0.519" y1="-0.7" x2="0.495" y2="0.648" xlink:href="#a"/><linearGradient id="q" x1="0.559" y1="-0.387" x2="0.508" y2="0.821" xlink:href="#a"/></defs><g transform="translate(-465.328 -143.07)"><path class="a" d="M606.968,507.376s193.456,15.9,202.82,25.267S862.595,545.75,921.4,546.687s86.375,14.045,86.375,14.045,101.608,24.344,123.625,15.917,62.278-7.491,59.937-22.471-42.827-18.94-42.827-18.94L751.048,488.9S587.664,494.281,606.968,507.376Z" transform="translate(-41.47 -102.399)"/><g transform="translate(465.328 143.07)"><path class="b" d="M1233.411,442.628h0c9.468.822,18.548-3.268,22.642-10.2l2.428-4.112c6.948-11.762,19.155-20.969,34.172-25.777l.65-.208a35.24,35.24,0,0,1,20.341-.265h0c13.539,3.929,24.615,12,30.834,22.459l7.608,12.8,1.26,2.691c2.343,5,7.68,8.707,14.167,9.828h0a7.5,7.5,0,0,0,6.153-1.588h0a8.482,8.482,0,0,0,2.992-5.727l.538-7.56c.944-13.275-5.322-26.225-17.167-35.477h0c-13.835-10.806-32.724-16.352-51.938-15.247h0a87.92,87.92,0,0,0-28.329,6.359h0c-24.978,10.277-42.247,29.659-46.351,52.023Z" transform="translate(-692.755 -214.44)"/><g transform="translate(653.332 180.392)"><path class="b" d="M1407.681,406.623c0,4.021-1.021,7.28-2.281,7.28s-11.914-1.688-11.914-7.28c0-7.28,10.654-7.28,11.914-7.28S1407.681,402.6,1407.681,406.623Z" transform="translate(-1393.485 -399.343)"/><path class="c" d="M1405.4,399.343c-1.244,0-11.647,0-11.909,7.01,2.695-3.867,9.876-3.867,10.9-3.867,1.26,0,2.281,3.259,2.281,7.28a21.006,21.006,0,0,1-.262,3.382c.754-1.188,1.274-3.66,1.274-6.524C1407.683,402.6,1406.662,399.343,1405.4,399.343Z" transform="translate(-1393.487 -399.343)"/><ellipse class="d" cx="2.281" cy="7.28" rx="2.281" ry="7.28" transform="translate(9.633 0)"/><path class="e" d="M1410.179,399.343a.9.9,0,0,0-.551.223c.993.788,1.73,3.644,1.73,7.057s-.737,6.269-1.73,7.057a.9.9,0,0,0,.551.222c1.26,0,2.281-3.259,2.281-7.28S1411.439,399.343,1410.179,399.343Z" transform="translate(-1398.265 -399.343)"/></g><path class="f" d="M1080.86,210.22l-2.695,61.763,104.587,10.006-7.494-49.241Z" transform="translate(-646.787 -162.953)"/><path class="g" d="M498.42,280.746l5.87-61.38a3.266,3.266,0,0,1,3.959-2.878l26.371,5.861a3.266,3.266,0,0,1,2.545,3.47l-4.14,47.782a3.265,3.265,0,0,0,3.111,3.544l36.718,1.6a3.265,3.265,0,0,0,3.383-3.666l-5.352-43.021a3.266,3.266,0,0,1,3.764-3.627l12.94,2.1a3.266,3.266,0,0,1,2.733,3.486l-3.178,39.5a3.265,3.265,0,0,0,3.206,3.527c1.42.021,2.863.046,3.45.067,1.105.038,4.887-32.609,6.06-42.978a3.263,3.263,0,0,1,3.489-2.886l17.957,1.344a3.266,3.266,0,0,1,2.958,3.9l-7.815,38.748a3.266,3.266,0,0,0,3,3.905l41.188,2.555a3.266,3.266,0,0,0,2.036-5.962l-10.014-6.793a3.265,3.265,0,0,1-1.432-2.8l.952-31.965a3.266,3.266,0,0,1,3.267-3.168l57.27.037a3.266,3.266,0,0,1,3.258,3.463l-2.728,44.955a3.262,3.262,0,0,0,2.782,3.428c5.075.748,14.893,2.025,14.889.728,0-1.749-1.248-55.578,0-55.266,1.061.265,41.325,1.206,53.433,1.483a3.263,3.263,0,0,1,3.181,3.483l-3.6,53.75a3.265,3.265,0,0,0,3.725,3.451c3.045-.442,6.749-1.064,6.931-1.5.269-.64.075-43.052.016-54.945a3.264,3.264,0,0,1,3.051-3.272l47.433-3.135a3.266,3.266,0,0,1,3.469,3.548l-3.94,44.382q-.013.145-.013.289v129.3a3.266,3.266,0,0,0,3.5,3.258l12.5-.9a3.266,3.266,0,0,0,3.029-3.178l4.211-173.618a3.265,3.265,0,0,1,3.4-3.184l26.335,1.109,35.546.57a3.266,3.266,0,0,1,3.211,3.4l-3.342,80.11a3.266,3.266,0,0,0,3.386,3.4l13.477-.51a3.266,3.266,0,0,0,3.135-3.486L947.6,233.1a3.266,3.266,0,0,1,3.54-3.476l47.673,4.123a3.265,3.265,0,0,1,2.983,3.327l-1.569,69.363a3.266,3.266,0,0,0,4.424,3.127h0a3.265,3.265,0,0,0,2.1-3.2l-2.911-63.141a3.165,3.165,0,0,0-.04-.383l-3.4-20.565a3.266,3.266,0,0,0-1.867-2.438l-98.047-44.7a3.27,3.27,0,0,0-1.456-.292L542.342,185.894a3.266,3.266,0,0,0-1.651.508l-41.361,26.284a3.269,3.269,0,0,0-1.474,2.245l-10.184,64.3a3.266,3.266,0,0,0,2.7,3.734l4.271.7A3.267,3.267,0,0,0,498.42,280.746Z" transform="translate(-471.932 -152.478)"/><path class="g" d="M1353.216,331.189v-5.165l-.745-2.326-39.658-1.1s-25.18-3.656-15.584,19.319,19.311,36.057,19.311,36.057,39.911-8.166,39.911-9.1S1353.216,331.189,1353.216,331.189Z" transform="translate(-711.005 -196.166)"/><path d="M1149.4,428.588c-2.571-26.891-17.417-46.722-35.936-47.269-7.207-.213-18.514-2.161-27.922-.9-.052,0-.1-.009-.156-.011-.7-.02-1.392-.013-2.082.019-15.35-5.351-29.412-9.919-29.412-9.919L892.377,434.55l-8.427,24.17H838.064L828.04,431.18l-83.064-22.712c-3.48-11.586-11.116-19.446-20.2-19.714-4.408-.13-11.324-1.322-17.079-.55-.032,0-.063-.006-.1-.006-5.238-.155-10.154,2.143-14.23,6.16L535.644,351.231c-.7,2.309-21.309,43.023-21.309,43.023l81.131,14.381L643.85,424.97s23.837,26.771,40.417,12.643c3.434,11.879,11.309,20.334,20.756,20.9.165.018.335.029.513.034,5.446.161,15.6,3.627,24.183-.578,7.02-3.439,14.335-12.631,16.595-26.092l58.727,7.145L809.48,476.3l100.546,3.64,24.48-24.886,39.43,3.665,81.392,20.079c6.605,9.729,15.667,15.952,25.849,16.564q.4.042.838.056c8.9.263,25.5,5.93,39.533-.944C1136.7,487.05,1152.711,463.236,1149.4,428.588Z" transform="translate(-479.839 -204.706)"/><g transform="translate(114.731 183.673)"><g transform="translate(16.163 0.45)"><path d="M700.46,434.368c2.027,21.194-7.767,35.761-17.037,40.3-8.583,4.2-18.737.738-24.183.578-11.329-.335,5.039-25.593-2.151-40.5-17.836-36.979,10.06-29.632,21.388-29.3S698.888,417.918,700.46,434.368Z" transform="translate(-651.283 -404.644)"/></g><ellipse class="g" cx="35.191" cy="24.139" rx="35.191" ry="24.139" transform="translate(0 70.352) rotate(-88.334)"/><g transform="translate(10.25 14.622)"><ellipse class="d" cx="20.849" cy="14.301" rx="20.849" ry="14.301" transform="translate(0 41.681) rotate(-88.334)"/></g><g transform="translate(14.374 17.89)"><ellipse class="e" cx="17.392" cy="11.726" rx="17.392" ry="11.726" transform="translate(0 34.769) rotate(-88.333)"/></g><g transform="translate(15.084 18.228)"><path class="h" d="M661.606,431.01c6.473.191,11.493,8.129,11.211,17.731a25.673,25.673,0,0,1-.2,2.571,25.651,25.651,0,0,0,.375-3.676c.281-9.6-4.738-17.54-11.211-17.731-5.883-.175-10.941,6.111-12.026,14.467C651.119,436.574,655.986,430.844,661.606,431.01Z" transform="translate(-649.75 -429.901)"/></g><g transform="translate(13.149 26.194)"><ellipse class="g" cx="10.152" cy="7.271" rx="10.152" ry="7.271" transform="translate(0 20.295) rotate(-88.336)"/></g></g><g transform="translate(85.711 182.456)"><g transform="translate(17.948 0.499)"><path d="M667.2,435.993c2.25,23.536-8.625,39.713-18.92,44.756-9.531,4.669-20.807.82-26.855.642-12.579-.372,5.6-28.421-2.388-44.973-19.807-41.064,11.172-32.906,23.751-32.534S665.457,417.726,667.2,435.993Z" transform="translate(-612.592 -402.985)"/></g><ellipse class="g" cx="39.079" cy="26.806" rx="39.079" ry="26.806" transform="translate(0 78.125) rotate(-88.334)"/><g transform="translate(11.383 16.237)"><ellipse class="d" cx="23.153" cy="15.881" rx="23.153" ry="15.881" transform="translate(0 46.286) rotate(-88.334)"/></g><g transform="translate(15.962 19.867)"><ellipse class="e" cx="19.314" cy="13.021" rx="19.314" ry="13.021" transform="translate(0 38.611) rotate(-88.333)"/></g><g transform="translate(16.75 20.242)"><path class="h" d="M624.056,432.264c7.188.213,12.762,9.028,12.45,19.69-.029.971-.106,1.924-.227,2.855a28.544,28.544,0,0,0,.415-4.083c.313-10.662-5.262-19.478-12.45-19.69-6.533-.193-12.15,6.787-13.354,16.066C612.41,438.444,617.814,432.08,624.056,432.264Z" transform="translate(-610.89 -431.032)"/></g><path class="g" d="M616.7,443.932c-4.457-.132-8.218,4.806-8.4,11.029s3.283,11.376,7.741,11.507,8.219-4.807,8.4-11.03S621.158,444.064,616.7,443.932Zm-2.89,17.557c-2.487-.074-4.421-2.949-4.319-6.422s2.2-6.229,4.688-6.155,4.421,2.949,4.319,6.421S616.3,461.562,613.811,461.489Z" transform="translate(-593.371 -414.609)"/></g><g transform="translate(482.437 203.05)"><g transform="translate(26.422 0.735)"><path d="M1268.634,481.169c3.313,34.648-12.7,58.462-27.851,65.887-14.031,6.873-30.63,1.207-39.533.944-18.52-.548,8.238-41.839-3.516-66.206-29.159-60.452,16.445-48.441,34.964-47.894S1266.063,454.278,1268.634,481.169Z" transform="translate(-1188.239 -432.577)"/></g><ellipse class="g" cx="57.53" cy="39.462" rx="57.53" ry="39.462" transform="translate(0 115.011) rotate(-88.334)"/><g transform="translate(16.757 23.903)"><ellipse class="d" cx="34.084" cy="23.38" rx="34.084" ry="23.38" transform="translate(0 68.139) rotate(-88.334)"/></g><g transform="translate(23.498 29.247)"><ellipse class="e" cx="28.432" cy="19.169" rx="28.432" ry="19.169" transform="translate(0 56.84) rotate(-88.333)"/></g><g transform="translate(24.659 29.799)"><path class="h" d="M1205.115,475.678c10.583.313,18.788,13.29,18.328,28.987-.042,1.43-.156,2.833-.334,4.2a41.872,41.872,0,0,0,.612-6.011c.46-15.7-7.746-28.673-18.328-28.986-9.617-.284-17.887,9.992-19.66,23.65C1187.971,484.776,1195.927,475.408,1205.115,475.678Z" transform="translate(-1185.733 -473.866)"/></g><path class="g" d="M1194.288,492.855c-6.562-.194-12.1,7.076-12.368,16.238s4.834,16.746,11.395,16.939,12.1-7.076,12.368-16.238S1200.849,493.049,1194.288,492.855Zm-3.719,25.378c-3.477-.1-6.179-4.121-6.037-8.975s3.076-8.706,6.552-8.6,6.18,4.121,6.038,8.975S1194.045,518.336,1190.569,518.233Z" transform="translate(-1159.943 -449.689)"/></g><path class="f" d="M721.306,267.347l-69.739-.6V226.565l71.586-2.217Zm-137.994-1.2,61.246.531,1.232-39.938-61.244,1.9Zm-7.586-.065V228.914l-32.636,1.011a17.742,17.742,0,0,0-16.707,13.61l-5.275,22.077Zm152.93-41.908v43.234l80.522.7,2.5-46.5Z" transform="translate(-481.844 -166.324)"/><path class="g" d="M1026.345,424.778c-.067,0-.133,0-.2-.007-35.308-2.523-36.167-2.809-36.581-2.947-2.019-.673-2.013-2.27-2-5.169.006-1.577.041-3.922.1-6.971.117-5.651.336-13.941.652-24.639.531-18.009,1.34-43.094,2.4-74.561,1.813-53.572,3.764-107.8,3.785-108.344a2.815,2.815,0,0,1,2.814-2.714H1024.8a11.255,11.255,0,0,1,11.25,11.624l-6.894,211a2.815,2.815,0,0,1-2.814,2.723Zm-33.16-8.156c5.468.489,19.771,1.553,30.442,2.323l6.8-208.078a5.625,5.625,0,0,0-5.622-5.809h-24.767C997.991,261.969,993.255,397.515,993.185,416.622Zm-12.094,5.347H941.142a2.816,2.816,0,0,1-2.814-2.9l6.313-208.906A11.017,11.017,0,0,1,955.7,199.427h33.189a2.814,2.814,0,0,1,2.814,2.917l-7.8,216.911A2.815,2.815,0,0,1,981.091,421.969Zm-37.047-5.631h34.331l7.6-211.279H955.7a5.413,5.413,0,0,0-5.436,5.273Zm78.137-46.8h-20.81a2.817,2.817,0,0,1-2.816-2.853l.65-49.624a2.817,2.817,0,0,1,2.816-2.778h20.811a2.816,2.816,0,0,1,2.816,2.852L1025,366.757A2.816,2.816,0,0,1,1022.181,369.536Zm-17.958-5.631H1019.4l.577-43.993H1004.8Zm-29.693,5.631H951.98a2.816,2.816,0,0,1-2.816-2.856l.7-49.624a2.816,2.816,0,0,1,2.816-2.775h22.551a2.816,2.816,0,0,1,2.816,2.855l-.7,49.624A2.816,2.816,0,0,1,974.531,369.536Zm-19.7-5.631h16.919l.624-43.993H955.459ZM1025,267.478h-20.81a2.815,2.815,0,0,1-2.816-2.852l.65-49.624a2.817,2.817,0,0,1,2.816-2.779h20.811a2.816,2.816,0,0,1,2.816,2.853l-.65,49.624A2.816,2.816,0,0,1,1025,267.478Zm-17.958-5.631h15.179l.577-43.993h-15.178Zm-29.693,5.631H954.8a2.815,2.815,0,0,1-2.816-2.855l.7-49.624a2.816,2.816,0,0,1,2.816-2.776H978.05a2.817,2.817,0,0,1,2.816,2.856l-.7,49.624A2.816,2.816,0,0,1,977.346,267.478Zm-19.7-5.631H974.57l.624-43.993H958.275Z" transform="translate(-605.381 -159.757)"/><path class="b" d="M834.615,143.194l-98.088,5.88a.051.051,0,0,1-.052-.039,5.2,5.2,0,0,0-5.387-4.056L711.1,146.2a5.245,5.245,0,0,0-2.155.61l-12.4,6.632a.051.051,0,0,1-.023.006l-49.738,2a.049.049,0,0,1-.041-.02A6.577,6.577,0,0,0,641.4,152.9l-20.974.5a6.621,6.621,0,0,0-3.518,1.111l-6.818,4.545a.049.049,0,0,1-.025.008l-67.47,5.547a63.469,63.469,0,0,0-57.377,52.651l-19.7,116.233a13.557,13.557,0,0,0,12.092,15.763l58.154,5.49a.051.051,0,0,0,.05-.026l9.275-16.727A25.206,25.206,0,0,1,567,324.814a24.758,24.758,0,0,1,23.6,17.349l6.677,21.294a.051.051,0,0,0,.044.036l165.519,18.235a29.2,29.2,0,0,1,24.5,19.789h0a5.55,5.55,0,0,0,5.264,3.794h.332a6.16,6.16,0,0,0,6.157-5.965l6.677-210.632v0c-1.978-37.036,23.959-44.363,28.859-45.414A.052.052,0,0,0,834.615,143.194ZM553.607,242.819l-43.869-.38a4.1,4.1,0,0,1-3.95-5.05l3.23-13.52a22.521,22.521,0,0,1,21.206-17.276l24.725-.766a4.133,4.133,0,0,1,4.261,4.131v27.307A5.554,5.554,0,0,1,553.607,242.819Zm71.11.616-54.439-.472a3.4,3.4,0,0,1-3.368-3.511l1.015-30.842a3.4,3.4,0,0,1,3.292-3.286l54.443-1.687a3.4,3.4,0,0,1,3.5,3.5l-1.019,33A3.4,3.4,0,0,1,624.717,243.435Zm76.329.662-62.156-.538a3.874,3.874,0,0,1-3.84-3.874V207.1a3.874,3.874,0,0,1,3.754-3.872l63.663-1.972a3.874,3.874,0,0,1,3.99,4.038L704.95,240.39A3.874,3.874,0,0,1,701.046,244.1Zm88.425.767-74.022-.641a3.338,3.338,0,0,1-3.309-3.338V204.2a3.338,3.338,0,0,1,3.234-3.337l76.154-2.359a3.338,3.338,0,0,1,3.436,3.515l-2.131,39.69A3.337,3.337,0,0,1,789.471,244.864Z" transform="translate(-465.328 -143.106)"/><g transform="translate(0 0.04)"><path class="c" d="M779.143,229.6h0l-1.494,34.778a5.529,5.529,0,0,1-5.571,5.291l-61.454-.533V271.9l63.216.548a6.75,6.75,0,0,0,6.8-6.46l1.435-33.418A2.849,2.849,0,0,0,779.143,229.6Z" transform="translate(-537.96 -168.73)"/><path class="c" d="M577.215,236.079h0v28.364a5.877,5.877,0,0,1-5.928,5.876l-45.089-.391h0a2.256,2.256,0,0,0,2.176,2.782l44.044.382a7.673,7.673,0,0,0,7.739-7.673V238.932A2.854,2.854,0,0,0,577.215,236.079Z" transform="translate(-483.333 -170.649)"/><path class="c" d="M673.105,233h0l-.926,30a7.218,7.218,0,0,1-7.278,7l-51.153-.443-.091,2.762,53.808.467a7.605,7.605,0,0,0,7.668-7.371l.909-29.472A2.85,2.85,0,0,0,673.105,233Z" transform="translate(-509.248 -169.737)"/><path class="c" d="M854.005,151.845l86.2-5.166a33.228,33.228,0,0,1,9.8-3.553l-97.708,5.856A5.176,5.176,0,0,1,854.005,151.845Z" transform="translate(-579.907 -143.126)"/><path class="c" d="M923.135,508.555a29.167,29.167,0,0,0-9.129-13.286,29.148,29.148,0,0,1,6.186,10.5,5.536,5.536,0,0,0,3.191,3.375A5.517,5.517,0,0,1,923.135,508.555Z" transform="translate(-598.18 -247.394)"/><path class="c" d="M644.057,424.822a24.722,24.722,0,0,0-8.127-11.89,24.7,24.7,0,0,1,5.184,9.1l6.687,21.327,2.142.236Z" transform="translate(-515.843 -223.015)"/><path class="c" d="M468.463,337.03,488.17,220.757A63.417,63.417,0,0,1,545.5,168.15l67.523-5.551,6.841-4.561a6.582,6.582,0,0,1,3.491-1.1l20.989-.5a6.574,6.574,0,0,1,5.357,2.549l49.775-2,12.419-6.643a5.193,5.193,0,0,1,2.134-.6l20-1.22a5.182,5.182,0,0,1,2.135.324,5.2,5.2,0,0,0-5.077-3.113l-20,1.22a5.192,5.192,0,0,0-2.134.6l-12.419,6.643-49.775,2a6.577,6.577,0,0,0-5.357-2.55l-20.989.5a6.575,6.575,0,0,0-3.491,1.1l-6.841,4.561-67.523,5.551a63.417,63.417,0,0,0-57.33,52.607L465.522,334.241a13.553,13.553,0,0,0,5.625,13.4A13.508,13.508,0,0,1,468.463,337.03Z" transform="translate(-465.328 -143.893)"/><path class="c" d="M900.063,225.7h0l-2.172,40.448a3.321,3.321,0,0,1-3.345,3.143l-74.405-.645v2.764l74.006.641a6.815,6.815,0,0,0,6.865-6.45l1.981-36.9A2.847,2.847,0,0,0,900.063,225.7Z" transform="translate(-570.387 -167.576)"/></g><path class="b" d="M1138.508,220.889a64.754,64.754,0,0,0-29.789-49.561l-.812-.517a129.451,129.451,0,0,0-35.5-15.691l-13.486-3.672a211.93,211.93,0,0,0-48.36-7.315l-29.7-1.024s-33.1-3.1-34.643,45.566l-6.554,216.6,89.885,5.618a20.141,20.141,0,0,0,15.061-6.768l3.353-3.777h0a85.272,85.272,0,0,1,16.117-42.493l5.73-7.822,1.249-67.1s.936-15.606,7.8-16.854l63.045-1.873ZM1030.176,407.148l-89.632-3.3,6.31-210.59A10.368,10.368,0,0,1,957.248,183.2l58.066.166,6.356.639A16.558,16.558,0,0,1,1036.564,201Zm25.795-158.335c-4.056-.183-8.979-.406-12.641-.576a5.177,5.177,0,0,1-4.925-5.516l2.553-38.431a3.95,3.95,0,0,1,7.7-.95l12.471,38.712A5.177,5.177,0,0,1,1055.971,248.812Zm78.733,7.008-58.835-6.044a13.506,13.506,0,0,1-11.693-10.038l-7.893-30.363a5.427,5.427,0,0,1,6.257-6.7l64.145,12.077a11.146,11.146,0,0,1,9.029,9.849l2.737,27.482A3.415,3.415,0,0,1,1134.7,255.82Z" transform="translate(-605.778 -143.07)"/><g transform="translate(333.889 7.403)"><path class="c" d="M1037.279,420.946l6.388-206.15a16.559,16.559,0,0,0-14.895-16.989l-6.356-.639L964.351,197a10.347,10.347,0,0,0-8.273,4.1,10.314,10.314,0,0,1,6.03-1.924l58.066.166,6.356.639a16.558,16.558,0,0,1,14.895,16.988l-6.318,203.9Z" transform="translate(-944.526 -166.442)"/><path class="c" d="M1190.908,274.033l-2.738-27.483a11.147,11.147,0,0,0-9.029-9.849L1115,224.624a5.414,5.414,0,0,0-5.746,2.69,5.358,5.358,0,0,1,3.5-.518l64.145,12.077a11.146,11.146,0,0,1,9.029,9.849l2.737,27.482a3.4,3.4,0,0,1-.165,1.432A3.414,3.414,0,0,0,1190.908,274.033Z" transform="translate(-989.88 -174.592)"/><path class="c" d="M1107.045,263.65l-12.471-38.711c-.781-1.93-3.531-2.191-7.414-.3a3.9,3.9,0,0,1,5.171,2.471l12.471,38.712a5.123,5.123,0,0,1-.385,4.059A5.18,5.18,0,0,0,1107.045,263.65Z" transform="translate(-983.339 -174.243)"/><path class="c" d="M1031.8,411.836l-58.881-3.68-32.369-1.19,6.31-210.59a10.309,10.309,0,0,1,1.561-5.149l.049-1.608c.585-18.466,5.715-29.475,11.855-36.032-7.09,6.2-13.443,17.525-14.1,38.2l-6.554,216.6,89.885,5.618a20.141,20.141,0,0,0,15.061-6.768l.04-.046A20.137,20.137,0,0,1,1031.8,411.836Z" transform="translate(-939.667 -153.587)"/><path class="c" d="M1138.982,313.979a6.174,6.174,0,0,0-3.857,2.785,4.919,4.919,0,0,1,1.613-.613l63.045-1.873-.165-2.1Z" transform="translate(-997.542 -200.545)"/></g><path class="e" d="M1381.478,440.21s9.363-63.542-18.258-112.308c0,0,1.4-2.819-32.541-3.439,0,0-9.593,2.307-9.827,6.227,0,0-2.441,6.592,2.806,18.195,4.105,9.078,13.088,40.659,13.088,40.659a29.528,29.528,0,0,0,6.529,13.638,38.871,38.871,0,0,1,5.9,10.628c5.384,13.5,4.448,30.818,4.448,30.818Z" transform="translate(-718.478 -196.78)"/><path class="i" d="M1039.429,376.791" transform="translate(-635.318 -212.274)"/><g transform="translate(5.872 175.729)"><path class="g" d="M797.691,473.161a2.222,2.222,0,0,1-2.231,2.161h-.387a1.681,1.681,0,0,1-1.591-1.14,33.153,33.153,0,0,0-27.748-22.419L602.7,433.806l-5.934-18.914a28.75,28.75,0,0,0-1.858-4.533,26.051,26.051,0,0,0-1.57-2.675,28.623,28.623,0,0,0-43.6-4.984c-.422.4-.831.817-1.232,1.246a28.42,28.42,0,0,0-4.09,5.624l-8.3,14.972-55.665-5.258a9.591,9.591,0,0,1-6.779-3.745l1.675-1.288a7.537,7.537,0,0,0,5.3,2.935l54.292,5.124,7.63-13.761A30.659,30.659,0,0,1,554.52,396.59a30.163,30.163,0,0,1,3.738-1.76,30.547,30.547,0,0,1,11.185-2.112,30.981,30.981,0,0,1,3.238.169,30.549,30.549,0,0,1,12.452,4.139h.007a28.436,28.436,0,0,1,3.372,2.33h.007a30.294,30.294,0,0,1,7.271,8.257,29.449,29.449,0,0,1,1.563,2.949,31.119,31.119,0,0,1,1.429,3.7l5.512,17.6,161.672,17.809a35.279,35.279,0,0,1,29.423,23.546h.07a.115.115,0,0,0,.12-.12Z" transform="translate(-473.67 -392.719)"/></g><path class="g" d="M1328.961,353.661s5.618,13.879,9.207,18.748,14.981,29.368,16.854,34.674,5.146,17.539,6.71,22.315-.206,11.548,8.558,14.512L1382.8,446.1s4.569-57.739-10.356-91.6Z" transform="translate(-721.047 -205.425)"/><g transform="translate(605.534 146.525)"><g transform="translate(7.842 1.724)"><path d="M1346.339,396.6c6.977.131,33.723.641,39.277.849a1.163,1.163,0,0,1,1,1.25h0a1.145,1.145,0,0,1-1.078,1.25h-38.656a1.674,1.674,0,0,1-1.523-1.262l-.075-.231A1.345,1.345,0,0,1,1346.339,396.6Z" transform="translate(-1339.232 -366.389)"/><path d="M1353.712,420.982c6.44.131,31.128.641,36.255.849a1.143,1.143,0,0,1,.919,1.251h0c0,.713-.453,1.282-.995,1.25h-35.682a1.58,1.58,0,0,1-1.406-1.262l-.069-.231C1352.467,421.938,1352.977,420.967,1353.712,420.982Z" transform="translate(-1341.441 -373.608)"/><path d="M1369.92,446.7c4.48.091,21.654.446,25.22.591a.8.8,0,0,1,.639.87h0c0,.5-.315.892-.692.869h-24.822a1.1,1.1,0,0,1-.979-.878l-.047-.16C1369.053,447.361,1369.407,446.685,1369.92,446.7Z" transform="translate(-1346.335 -381.222)"/><path d="M1374.531,469.633c4,.091,19.323.446,22.507.591.319.014.57.4.57.87h0c0,.5-.281.892-.617.869h-22.151c-.386,0-.732-.348-.873-.878l-.042-.161C1373.757,470.3,1374.074,469.622,1374.531,469.633Z" transform="translate(-1347.723 -388.013)"/><path d="M1337.827,353.68c6.784.131,32.793.641,38.194.849a1.155,1.155,0,0,1,.968,1.251h0a1.134,1.134,0,0,1-1.047,1.25h-37.59a1.64,1.64,0,0,1-1.481-1.262l-.073-.231C1336.515,354.636,1337.052,353.665,1337.827,353.68Z" transform="translate(-1336.721 -353.68)"/><path d="M1343.868,372.657c6.727.132,32.515.641,37.87.849a1.154,1.154,0,0,1,.959,1.251h0a1.131,1.131,0,0,1-1.039,1.25h-37.271a1.631,1.631,0,0,1-1.469-1.262l-.071-.231C1342.567,373.613,1343.1,372.642,1343.868,372.657Z" transform="translate(-1338.512 -359.299)"/></g><path class="e" d="M1334.173,382.072c8.436.134,40.774.655,47.49.867a1.26,1.26,0,0,1,1.2,1.277h0a1.261,1.261,0,0,1-1.3,1.276h-46.739a1.979,1.979,0,0,1-1.842-1.288l-.09-.236A1.384,1.384,0,0,1,1334.173,382.072Zm5.062,18.937.083.236a1.84,1.84,0,0,0,1.7,1.288h43.142a1.211,1.211,0,0,0,1.2-1.276h0a1.22,1.22,0,0,0-1.111-1.276c-6.2-.213-36.048-.733-43.835-.866A1.375,1.375,0,0,0,1339.236,401.009Zm14.039,17.524.058.164a1.28,1.28,0,0,0,1.183.9h30.012a.842.842,0,0,0,.836-.888h0a.848.848,0,0,0-.772-.888c-4.312-.148-25.077-.51-30.495-.6A.957.957,0,0,0,1353.274,418.533Zm3.453,16.145.051.164a1.168,1.168,0,0,0,1.056.9h26.782a.806.806,0,0,0,.746-.888h0a.821.821,0,0,0-.689-.888c-3.848-.148-22.379-.51-27.213-.6C1356.909,433.35,1356.526,434.039,1356.728,434.679Zm-31.055-81.552.088.235a1.927,1.927,0,0,0,1.791,1.289H1373a1.243,1.243,0,0,0,1.267-1.276h0a1.245,1.245,0,0,0-1.171-1.277c-6.53-.213-37.977-.733-46.18-.867A1.38,1.38,0,0,0,1325.672,353.127Zm5.149,13.636.087.236a1.912,1.912,0,0,0,1.776,1.288h45.065A1.237,1.237,0,0,0,1379,367.01h0a1.24,1.24,0,0,0-1.16-1.276c-6.475-.213-37.655-.733-45.788-.867A1.379,1.379,0,0,0,1330.821,366.763Z" transform="translate(-1325.58 -351.231)"/><g class="j" transform="translate(0)"><path class="k" d="M1334.11,373.625l-.087-.236a1.379,1.379,0,0,1,1.235-1.9c8.134.134,39.314.655,45.788.867.023,0,.043.007.065.009a1.206,1.206,0,0,0-1.1-.9c-6.475-.213-37.655-.733-45.788-.867a1.379,1.379,0,0,0-1.235,1.9l.087.236a1.96,1.96,0,0,0,1.169,1.18A2.116,2.116,0,0,1,1334.11,373.625Z" transform="translate(-1327.747 -356.967)"/><path class="k" d="M1326.8,354.253l-.088-.235a1.38,1.38,0,0,1,1.245-1.9c8.2.134,39.65.654,46.181.866.025,0,.049.008.075.011a1.216,1.216,0,0,0-1.112-.9c-6.53-.213-37.977-.733-46.18-.867a1.38,1.38,0,0,0-1.245,1.9l.087.235a1.97,1.97,0,0,0,1.167,1.176A2.025,2.025,0,0,1,1326.8,354.253Z" transform="translate(-1325.58 -351.231)"/><path class="l" d="M1337.056,398.067l-.09-.236a1.384,1.384,0,0,1,1.28-1.9c8.436.134,40.774.655,47.49.866.036,0,.072.011.108.015a1.242,1.242,0,0,0-1.145-.906c-6.715-.212-39.054-.733-47.489-.867a1.383,1.383,0,0,0-1.28,1.9l.089.236a1.994,1.994,0,0,0,1.163,1.159A2.035,2.035,0,0,1,1337.056,398.067Z" transform="translate(-1328.617 -364.204)"/><path class="k" d="M1346.062,422.278l-.083-.236a1.375,1.375,0,0,1,1.182-1.895c7.786.134,37.637.654,43.835.866l.017,0a1.165,1.165,0,0,0-1.052-.893c-6.2-.213-36.049-.733-43.835-.867a1.375,1.375,0,0,0-1.182,1.895l.083.236a1.913,1.913,0,0,0,1.177,1.2A2.109,2.109,0,0,1,1346.062,422.278Z" transform="translate(-1331.288 -371.373)"/><path class="l" d="M1365.935,447.18a.957.957,0,0,1,.822-1.318c5.318.091,25.416.442,30.23.595a.848.848,0,0,0-.771-.883c-4.312-.148-25.077-.51-30.495-.6a.957.957,0,0,0-.822,1.318l.058.164a1.287,1.287,0,0,0,1.029.87Z" transform="translate(-1337.204 -378.987)"/><path class="k" d="M1370.895,470.281l-.051-.164c-.2-.64.182-1.329.733-1.318,4.7.091,22.369.436,26.865.59a.818.818,0,0,0-.688-.878c-3.848-.148-22.379-.51-27.213-.6-.552-.011-.935.679-.733,1.318l.051.164a1.171,1.171,0,0,0,1.037.893Z" transform="translate(-1338.66 -385.778)"/></g></g><path class="f" d="M983.09,271.229H960.539l.7-49.624h22.551Zm-2.112,52.433H958.427l-.7,49.624h22.551Z" transform="translate(-611.125 -166.324)"/><path class="b" d="M956.889,203.427a8.254,8.254,0,0,0-8.25,8l-6.312,208.906h39.949l7.8-216.911ZM975.715,367.9H953.164l.7-49.624h22.551Zm2.816-102.057H955.98l.7-49.624h22.551Z" transform="translate(-606.566 -160.941)"/><path class="f" d="M1051.517,271.229h-20.81l.65-49.624h20.81Zm-2.166,52.433h-20.81l-.65,49.624h20.81Z" transform="translate(-631.901 -166.324)"/><path class="b" d="M1046.7,203.427h-27.482s-7.8,216.6-6.867,216.911,35.892,2.809,35.892,2.809l6.893-211A8.441,8.441,0,0,0,1046.7,203.427ZM1044.077,367.9h-20.811l.65-49.624h20.81Zm2.816-102.057h-20.811l.65-49.624h20.81Z" transform="translate(-627.276 -160.941)"/><g transform="translate(343.517 42.486)"><path class="c" d="M958.007,227.046l-.661,46.567H979.9l.024-1.678H960.427l.68-47.946h0A3.1,3.1,0,0,0,958.007,227.046Z" transform="translate(-954.53 -209.516)"/><path class="c" d="M953.346,418.6H975.9l.024-1.678H956.427l.68-47.946h0a3.1,3.1,0,0,0-3.1,3.056Z" transform="translate(-953.346 -252.446)"/><path class="c" d="M960.75,203.427a8.217,8.217,0,0,0-5.384,2.008,8.241,8.241,0,0,1,2.3-.33h24.625a8.261,8.261,0,0,1,8.256,8.558l-7.434,206.674h3.02l7.8-216.911Z" transform="translate(-953.944 -203.427)"/></g><g transform="translate(391.879 42.486)"><path class="c" d="M1028.164,223.99l-.65,49.624h20.811l.022-1.678H1030.6l.628-47.946Z" transform="translate(-1023.669 -209.516)"/><path class="c" d="M1023.515,418.6h20.81l.022-1.678H1026.6l.628-47.946h0a3.1,3.1,0,0,0-3.1,3.058Z" transform="translate(-1022.484 -252.446)"/><path class="c" d="M1049.594,203.427h-27.482s-.021.585-.061,1.678h24.463a8.441,8.441,0,0,1,8.436,8.716l-6.832,209.108,3.019.217,6.893-211A8.441,8.441,0,0,0,1049.594,203.427Z" transform="translate(-1022.051 -203.427)"/></g><g transform="translate(34.496 44.551)"><path class="g" d="M516.379,258.242l-2.044-.531,5.134-19.778a30.394,30.394,0,0,1,28.26-22.614l272.518-8.959.068,2.11L547.8,217.431a28.271,28.271,0,0,0-26.285,21.034Z" transform="translate(-514.335 -206.361)"/></g><path class="g" d="M1078.449,306.4v.418h0a5.319,5.319,0,0,0-5.52,5.091v41.715a3.648,3.648,0,0,0,2.76,3.443h0a2.318,2.318,0,0,1-3.491,1.833l-.265-.144a3.552,3.552,0,0,1-1.911-3.149l.748-46.795a5.21,5.21,0,0,1,4.322-4.895h0A2.709,2.709,0,0,1,1078.449,306.4Z" transform="translate(-644.376 -190.678)"/><path class="m" d="M1078.725,306.4v.418h0a5.091,5.091,0,0,0-5.091,5.091v41.715a3.6,3.6,0,0,0,2.546,3.443h0a2.132,2.132,0,0,1-3.22,1.833l-.244-.144a3.6,3.6,0,0,1-1.762-3.149l.691-46.795a5.091,5.091,0,0,1,3.986-4.895h0A2.544,2.544,0,0,1,1078.725,306.4Z" transform="translate(-644.652 -190.678)"/><path class="b" d="M1118.169,203.887c-.591-4.4-3.118-7.694-5.638-7.349-1.429.19-2.548,1.513-3.147,3.428a12.129,12.129,0,0,0-.338,5.153c.5,3.717,2.379,6.638,4.47,7.243a2.749,2.749,0,0,0,1.169.106C1117.2,212.123,1118.767,208.28,1118.169,203.887Zm61.943,14.148c-.486-3.6-2.1-6.342-3.618-6.138-.929.12-1.6,1.323-1.872,3.062a13.559,13.559,0,0,0,.007,3.815c.422,3.09,1.668,5.554,2.978,6.054a1.294,1.294,0,0,0,.648.084C1179.767,224.709,1180.6,221.626,1180.112,218.036Z" transform="translate(-655.893 -158.894)"/><path class="n" d="M1114.29,208.033c-.521-3.857-2.7-6.765-4.906-6.617a12.129,12.129,0,0,0-.338,5.153c.5,3.717,2.379,6.638,4.47,7.243A9.958,9.958,0,0,0,1114.29,208.033Zm63.513,13.9c-.429-3.175-1.844-5.617-3.182-5.519a13.559,13.559,0,0,0,.007,3.815c.422,3.09,1.668,5.554,2.978,6.054A10.92,10.92,0,0,0,1177.8,221.928Z" transform="translate(-655.893 -160.344)"/><g transform="translate(454.666 37.618)"><path class="g" d="M1113.222,196.536a3.152,3.152,0,0,0-1.972,1.175,2.739,2.739,0,0,1,.956-.322c2.519-.341,5.043,2.949,5.638,7.347.417,3.08-.227,5.883-1.513,7.406,1.941-1.061,3.044-4.449,2.53-8.259C1118.266,199.485,1115.741,196.2,1113.222,196.536Z" transform="translate(-1111.25 -196.512)"/><path class="g" d="M1208.054,224.5c-.486-3.594-2.108-6.341-3.622-6.137a1.685,1.685,0,0,0-1.152.888,1.142,1.142,0,0,1,.136-.035c1.515-.2,3.136,2.542,3.622,6.136a9.876,9.876,0,0,1-.712,5.99C1207.754,230.974,1208.524,227.982,1208.054,224.5Z" transform="translate(-1138.5 -202.979)"/></g><g transform="translate(465.44 17.541)"><path class="o" d="M1133.2,180.666l.753,1.073a4.381,4.381,0,0,0,6.559.705h0a2.2,2.2,0,0,0-.023-3.246l-4.885-4.385Z" transform="translate(-1128.524 -170.01)"/><path class="p" d="M1141.254,179.2l-4.885-4.385-.6,1.454,4.545,4.08a2.19,2.19,0,0,1,.581,2.411,4.618,4.618,0,0,0,.379-.313A2.2,2.2,0,0,0,1141.254,179.2Z" transform="translate(-1129.284 -170.01)"/><path class="q" d="M1126.555,169.1v1.508a5.991,5.991,0,0,0,.766,2.932l4.508,8.041a.241.241,0,0,0,.451-.122c-.058-2.079.063-6.576,2.234-5.852,2.247.749,4.394,1.8,4.924,2.906a.6.6,0,0,0,.883.27l.156-.109a.585.585,0,0,0,.064-.907l-6.268-5.858a18.741,18.741,0,0,0-6.212-3.852h0A1.113,1.113,0,0,0,1126.555,169.1Z" transform="translate(-1126.555 -167.99)"/></g><g transform="translate(481.044 22.188)"><path class="o" d="M1154.144,184.921l.613.876a3.57,3.57,0,0,0,5.345.574h0a1.789,1.789,0,0,0-.019-2.646l-3.98-3.572Z" transform="translate(-1150.329 -176.238)"/><path class="r" d="M1160.758,183.725l-3.98-3.572-.355.863,3.5,3.138a1.788,1.788,0,0,1,.018,2.645,3.572,3.572,0,0,1-.4.315,3.547,3.547,0,0,0,1.24-.743h0A1.79,1.79,0,0,0,1160.758,183.725Z" transform="translate(-1151.004 -176.238)"/><path class="q" d="M1148.724,175.5v1.23a4.882,4.882,0,0,0,.624,2.39l3.674,6.553a.2.2,0,0,0,.368-.1c-.047-1.694.051-5.36,1.82-4.77,1.831.61,3.581,1.465,4.012,2.368a.487.487,0,0,0,.719.22l.127-.089a.477.477,0,0,0,.052-.74l-5.108-4.773a15.259,15.259,0,0,0-5.062-3.139h0A.907.907,0,0,0,1148.724,175.5Z" transform="translate(-1148.724 -174.592)"/></g><g transform="translate(495.606 26.476)"><path class="o" d="M1174.448,190.283l.57.814a3.318,3.318,0,0,0,4.967.534h0a1.663,1.663,0,0,0-.018-2.459l-3.7-3.32Z" transform="translate(-1170.902 -182.213)"/><path class="s" d="M1180.614,189.171l-3.7-3.32-.284.691,3.125,2.805a1.662,1.662,0,0,1,.017,2.459,3.288,3.288,0,0,1-1.158.688,3.283,3.283,0,0,0,2.016-.863A1.663,1.663,0,0,0,1180.614,189.171Z" transform="translate(-1171.549 -182.213)"/><path class="q" d="M1169.411,181.526v1.143a4.546,4.546,0,0,0,.58,2.221l3.415,6.09a.182.182,0,0,0,.341-.091c-.044-1.575.047-4.982,1.691-4.433,1.7.567,3.328,1.361,3.729,2.2a.453.453,0,0,0,.668.2l.118-.082a.444.444,0,0,0,.049-.688l-4.747-4.436a14.188,14.188,0,0,0-4.7-2.918h0A.843.843,0,0,0,1169.411,181.526Z" transform="translate(-1169.411 -180.682)"/></g><path class="c" d="M1098.891,339.406l-.032.724a298.526,298.526,0,0,1-15.023,79.988c-2.483,7.536-8.78,27.143-7.441,32.338,3.825,14.843,12.385-3.409,12.385-3.409l27.549-42.416,10.521-22.961s-21.575-31.33-15.2-42.822c13.965-25.186,9.472-27.479,2.289-24.18A26.23,26.23,0,0,0,1098.891,339.406Z" transform="translate(-646.209 -194.122)"/><path class="c" d="M978.52,172.336c0,2.326-.916,4.213-2.048,4.213s-6.379-1.886-6.379-4.213,5.248-4.214,6.379-4.214S978.52,170.008,978.52,172.336Z" transform="translate(-614.788 -150.488)"/><ellipse class="o" cx="2.048" cy="4.213" rx="2.048" ry="4.213" transform="translate(359.637 17.634)"/><path class="o" d="M696.246,162.2l16.7-1.4S708.73,154.866,696.246,162.2Z" transform="translate(-533.702 -147.648)"/><path class="o" d="M822.834,153.46l17.322-1.248S840.467,145.5,822.834,153.46Z" transform="translate(-571.185 -144.994)"/><path class="b" d="M1276.081,388.972s-34.409-34.643-86.374-14.045-66.478,66.946-66.478,66.946l2.149-106.04s.27-16.772,7.838-18.8,63.045-1.873,63.045-1.873l105.334,6.4-32.1.165a9.916,9.916,0,0,0-9.434,12.8l11.8,38.76Z" transform="translate(-660.131 -194.024)"/><path class="g" d="M1405.414,467.908s.7,3.511-1.4,4.915c0,0-30.43,9.6-42.836,8.661,0,0-11.33-2.831-16.433-4.693,0,0-14.975,10.607-.676,19.588,0,0,3.532,2.326,18.513.152,0,0,38.389-5.187,47.752-14.813C1410.33,481.719,1417.118,469.078,1405.414,467.908Z" transform="translate(-723.688 -239.253)"/><path class="t" d="M1357.132,484.557c15.214,1.148,52.531-10.621,52.531-10.621a5.044,5.044,0,0,0,1.857-4.277,8.717,8.717,0,0,0-4.846-1.751s.7,3.511-1.4,4.915c0,0-30.43,9.6-42.836,8.661,0,0-11.33-2.831-16.433-4.693a22.331,22.331,0,0,0-3.864,3.684C1348.8,482.475,1357.132,484.557,1357.132,484.557Z" transform="translate(-724.948 -239.253)"/><ellipse class="d" cx="6.069" cy="12.113" rx="6.069" ry="12.113" transform="translate(620.121 175.558)"/><g transform="translate(594.493 175.558)"><path class="b" d="M1347.659,404.589c0,6.69-2.717,12.113-6.068,12.113s-31.7-2.809-31.7-12.113c0-12.113,28.345-12.113,31.7-12.113S1347.659,397.9,1347.659,404.589Z" transform="translate(-1309.895 -392.476)"/><path class="c" d="M1341.6,392.476c-3.31,0-30.987,0-31.679,11.665,7.167-6.435,26.273-6.436,28.987-6.436,3.351,0,6.068,5.424,6.068,12.113a22.239,22.239,0,0,1-.7,5.627c2.006-1.977,3.389-6.089,3.389-10.856C1347.667,397.9,1344.95,392.476,1341.6,392.476Z" transform="translate(-1309.902 -392.476)"/><ellipse class="d" cx="6.069" cy="12.113" rx="6.069" ry="12.113" transform="translate(25.627 0)"/><path class="e" d="M1354.307,392.476a3.3,3.3,0,0,0-1.466.371c2.642,1.311,4.6,6.063,4.6,11.743s-1.96,10.432-4.6,11.742a3.286,3.286,0,0,0,1.466.371c3.352,0,6.068-5.424,6.068-12.113S1357.659,392.476,1354.307,392.476Z" transform="translate(-1322.611 -392.476)"/></g><g class="u" transform="translate(464.543 121.413)"><g transform="translate(10.868)"><path class="b" d="M1152.127,379.336a.7.7,0,0,1-.686-.55l-10.133-45.207a10.838,10.838,0,0,1,.938-9.051c2.471-3.921,7.72-6.22,15.6-6.833l59.719-2.141a.7.7,0,0,1,.051,1.407l-59.69,2.14c-7.384.575-12.27,2.654-14.49,6.177a9.53,9.53,0,0,0-.8,7.846.691.691,0,0,1,.03.1l10.143,45.253a.7.7,0,0,1-.532.841A.734.734,0,0,1,1152.127,379.336Z" transform="translate(-1140.72 -315.555)"/></g><g transform="translate(0 19.692)"><path class="b" d="M1260.069,347.048h-.011l-134.084-2.11a.7.7,0,1,1,.022-1.408l134.084,2.11a.7.7,0,0,1-.011,1.408Z" transform="translate(-1125.281 -343.53)"/></g><g transform="translate(26.261 23.207)"><path class="b" d="M1260.817,351.1h-.008l-97.524-1.171a.7.7,0,0,1-.7-.712.685.685,0,0,1,.712-.7l97.523,1.171a.7.7,0,0,1-.008,1.408Z" transform="translate(-1162.589 -348.523)"/></g><g transform="translate(30.359 25.313)"><path class="b" d="M1268,354.563h-.012l-98.887-1.639a.7.7,0,0,1,.011-1.408h.012l98.887,1.639a.7.7,0,0,1-.011,1.408Z" transform="translate(-1168.411 -351.516)"/></g><g transform="translate(35.725 27.888)"><path class="b" d="M1272.756,358.684h-.015l-96.018-2.1a.7.7,0,0,1-.689-.719.715.715,0,0,1,.719-.688l96.018,2.1a.7.7,0,0,1-.015,1.408Z" transform="translate(-1176.034 -355.174)"/></g><g transform="translate(38.347 30.229)"><path class="b" d="M1273.859,361.674h-.013l-93.4-1.767a.7.7,0,0,1,.026-1.408l93.4,1.767a.7.7,0,0,1-.013,1.408Z" transform="translate(-1179.759 -358.499)"/></g><g transform="translate(35.725 33.038)"><path class="b" d="M1275.1,366.083h-.016l-98.359-2.185a.7.7,0,0,1,.016-1.408h.016l98.359,2.185a.7.7,0,0,1-.016,1.408Z" transform="translate(-1176.034 -362.49)"/></g></g><path class="b" d="M1093.522,470.589h0a27.887,27.887,0,0,0,28.165-15.737l3.021-6.345a79.63,79.63,0,0,1,42.507-39.773l.809-.321a35.753,35.753,0,0,1,25.3-.41h0a68.117,68.117,0,0,1,38.355,34.655l9.464,19.751,1.567,4.152a24.273,24.273,0,0,0,17.623,15.163h0a8.075,8.075,0,0,0,7.654-2.45h0a14.321,14.321,0,0,0,3.722-8.836l.669-11.664a70.6,70.6,0,0,0-21.354-54.74h0a84.233,84.233,0,0,0-64.607-23.525h0a91.92,91.92,0,0,0-35.24,9.812h0a107.841,107.841,0,0,0-57.657,80.269Z" transform="translate(-651.334 -213.311)"/><g transform="translate(442.188 167.726)"><path class="c" d="M1158.876,416.72l-.809.322a79.625,79.625,0,0,0-42.507,39.773l-3.022,6.345a27.884,27.884,0,0,1-18.632,15.117c-.134.783-.268,1.565-.384,2.353h0a27.887,27.887,0,0,0,28.165-15.737l3.021-6.345a79.63,79.63,0,0,1,42.507-39.773l.809-.321A35.747,35.747,0,0,1,1183.239,416,35.749,35.749,0,0,0,1158.876,416.72Z" transform="translate(-1093.522 -391.076)"/><path class="c" d="M1297.3,404.346h0a84.225,84.225,0,0,0-47.5-23,84.217,84.217,0,0,1,38.35,21.264h0a70.6,70.6,0,0,1,21.355,54.739l-.669,11.664a14.317,14.317,0,0,1-3.722,8.837h0a8.048,8.048,0,0,1-3.883,2.341,24.228,24.228,0,0,0,5.378,1.843h0a8.075,8.075,0,0,0,7.654-2.45h0a14.321,14.321,0,0,0,3.722-8.836l.669-11.664A70.593,70.593,0,0,0,1297.3,404.346Z" transform="translate(-1139.795 -381.349)"/></g><g transform="translate(22.563 103.498)"><path class="g" d="M801.217,298.228h-.025L498.765,292.92a1.408,1.408,0,0,1,.024-2.816h.025l302.428,5.309a1.408,1.408,0,0,1-.025,2.815Z" transform="translate(-497.382 -290.104)"/></g><g transform="translate(19.754 119.725)"><path class="g" d="M800.036,326.581h-.049L494.75,315.972a1.408,1.408,0,0,1,.1-2.814l305.236,10.608a1.408,1.408,0,0,1-.049,2.815Z" transform="translate(-493.392 -313.158)"/></g><g transform="translate(3.433 161.56)"><path class="g" d="M801.54,400.051c-.035,0-.071,0-.106,0L471.508,375.4a1.407,1.407,0,1,1,.21-2.807l329.926,24.645a1.408,1.408,0,0,1-.1,2.812Z" transform="translate(-470.205 -372.59)"/></g><g transform="translate(125.535 190.484)"><path class="g" d="M853.426,432.551a1.4,1.4,0,0,1-1.4,1.288.72.72,0,0,1-.12-.007L647.689,416.77l-2.45-.2a26.061,26.061,0,0,0-1.57-2.675,1.394,1.394,0,0,1,.866-.2l1.591.134,206.018,17.21A1.405,1.405,0,0,1,853.426,432.551Z" transform="translate(-643.67 -413.681)"/></g><g transform="translate(0.84 176.849)"><path class="g" d="M547.617,403.158v.014c-.422.4-.831.817-1.232,1.246a.465.465,0,0,1-.169.021c-.042,0-.084-.007-.127-.007l-2.337-.218-75.958-7.1a1.407,1.407,0,0,1,.267-2.8l78.133,7.292.155.014A1.411,1.411,0,0,1,547.617,403.158Z" transform="translate(-466.522 -394.311)"/></g><g transform="translate(117.124 179.366)"><path class="g" d="M849,418.248q-.057,0-.116,0L633.014,400.7a1.407,1.407,0,0,1-1.289-1.517,1.387,1.387,0,0,1,1.517-1.29L849.11,415.437a1.408,1.408,0,0,1-.113,2.811Z" transform="translate(-631.72 -397.887)"/></g><g transform="translate(2.276 170.028)"><path class="g" d="M555.45,394.39c-.038,0-.083,0-.121,0l-85.474-6.952a1.408,1.408,0,1,1,.229-2.806l85.461,6.951a1.408,1.408,0,0,1-.094,2.812Z" transform="translate(-468.561 -384.621)"/></g><g transform="translate(91.205 109.03)"><path class="g" d="M594.9,307.364l.293-2.544.843.034c.1,1.649.944,2.872,2.551,2.936,1.129.044,1.952-.422,2.119-1.326.175-.948-.417-1.383-2.092-1.949-2.01-.653-3-1.646-2.671-3.411.375-2.027,2.294-3.229,4.648-3.136a5.624,5.624,0,0,1,3.275,1.012l-.41,2.217-.715-.029c-.094-1.488-.8-2.456-2.276-2.514a1.686,1.686,0,0,0-1.888,1.291c-.175.948.389,1.368,1.943,1.884,2,.682,3.263,1.511,2.885,3.553-.415,2.245-2.562,3.2-4.948,3.108A6.055,6.055,0,0,1,594.9,307.364Z" transform="translate(-594.898 -297.963)"/><path class="g" d="M624.18,299.794l-.423,2.554-.78-.031c-.077-1.751-.745-2.733-2.225-2.791-1.988-.079-3.172,1.828-3.627,4.292-.493,2.668.165,4.663,2.121,4.741,1.32.053,2.5-.767,3.542-2.959l.8.032-.806,2.892a8.148,8.148,0,0,1-4.071.793c-3.627-.144-5.517-2.143-4.949-5.22a6.645,6.645,0,0,1,7.035-5.3A6.107,6.107,0,0,1,624.18,299.794Z" transform="translate(-600.453 -298.207)"/><path class="g" d="M638.253,304.236l4.04.16.555-3c.139-.758.065-.878-.981-1.023l.113-.613,5.424.215-.113.613c-1.069.06-1.185.173-1.325.931l-1.3,7.059c-.139.758-.066.878.965,1.022l-.113.612-5.424-.215.113-.612c1.084-.061,1.2-.173,1.341-.931l.581-3.15-4.04-.16-.581,3.15c-.139.758-.065.878.965,1.023l-.113.612-5.424-.215.113-.612c1.085-.061,1.2-.173,1.342-.931l1.3-7.059c.139-.758.065-.878-.981-1.023l.113-.613,5.424.215-.113.612c-1.068.061-1.185.173-1.325.931Z" transform="translate(-606.16 -298.41)"/><path class="g" d="M658.222,305.78a6.3,6.3,0,0,1,6.672-5.245c3.531.14,4.943,2.562,4.442,5.274a6.29,6.29,0,0,1-6.672,5.244C659.133,310.914,657.721,308.493,658.222,305.78Zm7.751.278c.479-2.6.239-4.765-1.432-4.832-1.606-.063-2.562,2.161-2.957,4.305-.479,2.6-.239,4.765,1.431,4.831C664.622,310.426,665.578,308.2,665.973,306.058Z" transform="translate(-613.619 -298.723)"/><path class="g" d="M680.41,306.66a6.3,6.3,0,0,1,6.672-5.244c3.531.14,4.942,2.562,4.442,5.274a6.289,6.289,0,0,1-6.671,5.244C681.321,311.794,679.909,309.373,680.41,306.66Zm7.752.279c.479-2.6.239-4.765-1.432-4.832-1.606-.063-2.562,2.161-2.957,4.3-.479,2.6-.239,4.765,1.431,4.832C686.81,311.306,687.766,309.082,688.162,306.938Z" transform="translate(-620.189 -298.983)"/><path class="g" d="M705.6,310.918c-.145.787.17.991,1.045,1.026l.445.018c1.066.042,1.743-.5,3.565-2.65l.684.027-1.242,3.432-9.082-.36.113-.612c1.085-.06,1.2-.172,1.342-.931l1.3-7.059c.14-.758.066-.878-.981-1.022l.113-.613,5.424.215-.113.613c-1.068.061-1.186.173-1.325.931Z" transform="translate(-626.318 -299.209)"/><path class="g" d="M729.414,313.537l.113-.612c1.085-.061,1.2-.173,1.342-.931l1.3-7.059c.14-.758.066-.878-.981-1.023l.113-.613,5.774.229c2.465.1,3.754,1.016,3.441,2.708-.272,1.473-1.856,2.16-3.426,2.244,2.1.141,3.531,1.095,3.235,2.7-.348,1.882-2.055,2.71-4.982,2.594Zm6.042-9.383-.716,3.879.4.016a2.123,2.123,0,0,0,2.418-1.9c.239-1.3-.446-1.927-1.718-1.978Zm-.862,4.667L734,312.03c-.145.788.1,1,.931,1.036l.127,0a2.16,2.16,0,0,0,2.254-2.056c.245-1.327-.413-2.1-2.019-2.165Z" transform="translate(-634.728 -299.543)"/><path class="g" d="M755.51,310.709c-.309,1.677.2,2.754,1.931,2.823a2.888,2.888,0,0,0,3.141-2.7l.878-4.754c.139-.758-.024-.912-1.3-1.05l.113-.613,3.69.146-.113.613c-1.069.06-1.188.188-1.328.946l-.928,5.031c-.474,2.566-2.664,3.669-5.13,3.572-3.053-.121-4.574-1.43-4.111-3.938l.931-5.046c.14-.758.082-.878-.964-1.022l.113-.613,5.424.215-.113.613c-1.085.059-1.2.172-1.342.931Z" transform="translate(-641.496 -299.782)"/><path class="g" d="M772.429,314.405l.293-2.545.843.034c.1,1.649.944,2.872,2.55,2.936,1.129.044,1.953-.422,2.119-1.326.175-.947-.417-1.383-2.092-1.948-2.01-.653-3-1.647-2.671-3.412.374-2.027,2.294-3.229,4.648-3.135a5.62,5.62,0,0,1,3.274,1.011l-.409,2.217-.716-.028c-.094-1.488-.8-2.457-2.276-2.515a1.686,1.686,0,0,0-1.888,1.292c-.175.947.389,1.367,1.943,1.884,2.005.682,3.263,1.511,2.886,3.553-.415,2.245-2.562,3.2-4.948,3.108A6.06,6.06,0,0,1,772.429,314.405Z" transform="translate(-647.464 -300.048)"/></g><path class="h" d="M608.007,344.077a4.952,4.952,0,0,1-4.631,4.641,19.606,19.606,0,0,1,.586-9.8,4.951,4.951,0,0,1,4.045,5.159m2.967-1.378a1.554,1.554,0,0,0-1.646,1.455v.007a1.552,1.552,0,0,0,1.456,1.642h0a1.553,1.553,0,0,0,1.644-1.456h0a1.553,1.553,0,0,0-1.458-1.644h0m21.308,2.83a4.952,4.952,0,0,0,4.045,5.16,19.6,19.6,0,0,0,.586-9.8,4.949,4.949,0,0,0-4.63,4.64m-2.78-1.722a1.552,1.552,0,0,0-1.643,1.457h0a1.552,1.552,0,0,0,1.456,1.642h0a1.553,1.553,0,1,0,.186-3.1M619.38,356.985a4.955,4.955,0,0,0-5.16,4.045,19.609,19.609,0,0,0,9.8.586,4.954,4.954,0,0,0-4.645-4.632m.265-4.425A1.554,1.554,0,0,0,618,354.018h0a1.553,1.553,0,0,0,1.456,1.644h0a1.554,1.554,0,0,0,.186-3.1m1.188-19.862a4.952,4.952,0,0,0,5.16-4.045,19.62,19.62,0,0,0-9.8-.586,4.953,4.953,0,0,0,4.645,4.632m-.08,1.325a1.552,1.552,0,0,0-1.642,1.456v0a1.551,1.551,0,0,0,1.456,1.642h0a1.552,1.552,0,0,0,.187-3.1h0m7.438,19.892a4.952,4.952,0,0,0-.793,6.507,19.67,19.67,0,0,0,7.347-6.52,4.956,4.956,0,0,0-6.553.013M625.25,350.6a1.553,1.553,0,0,0,2.06,2.326l0,0a1.553,1.553,0,1,0-2.062-2.324m-13.2-14.878a4.951,4.951,0,0,0,.793-6.506,19.669,19.669,0,0,0-7.347,6.52,4.951,4.951,0,0,0,6.554-.013m.881.993a1.553,1.553,0,0,0,2.06,2.325h0a1.552,1.552,0,0,0,.133-2.191v0a1.554,1.554,0,0,0-2.193-.131m16.278.018a4.952,4.952,0,0,0,6.505.793,19.667,19.667,0,0,0-6.517-7.348,4.952,4.952,0,0,0,.012,6.555m-1.123,3.073a1.553,1.553,0,1,0-2.193-.131,1.556,1.556,0,0,0,2.193.131m-17.07,13.065a4.953,4.953,0,0,0-6.5-.8,19.655,19.655,0,0,0,6.518,7.349,4.951,4.951,0,0,0-.013-6.554m1.123-3.073a1.554,1.554,0,1,0,2.193.132,1.556,1.556,0,0,0-2.193-.132m47.521,1.524-3.6-.215-.152,2.543c-.092,1.52-.864,1.942-2.013,1.873s-1.866-.579-1.775-2.1l.714-11.925c.091-1.522.864-1.943,2.012-1.874s1.866.579,1.775,2.1l-.12,2.014,3.6.216.153-2.574c.194-3.229-1.9-4.724-5.188-4.921l-.063,0c-3.29-.2-5.545,1.039-5.738,4.267l-.781,13.039c-.2,3.385,1.9,4.724,5.189,4.921l.063,0c3.291.2,5.538-.915,5.738-4.267Zm13.1,8.257,3.663.219-2.8-21.975-4.532-.272-5.336,21.489,3.474.208,1.066-4.8,3.974.237ZM668.94,351.5l2.1-9.563.945,9.746Zm15.679,8.789.845-14.125,3.905,14.409,3.415.2,1.3-21.737-3.29-.2-.8,13.442-3.76-13.716-3.6-.215-1.3,21.737Zm26.544-20.227-3.474-.208-3.482,15.966-1.551-16.266-3.664-.22,2.8,21.977,3.974.238Zm10.219,22.426,3.664.219-2.8-21.975-4.533-.271-5.336,21.489,3.474.208,1.066-4.8,3.974.238Zm-3.816-8.079,2.1-9.563.944,9.746Zm23.272-6.182.127-2.138c.193-3.229-2.092-4.612-5.072-4.79l-.063,0c-2.98-.178-5.413.922-5.606,4.151l-.171,2.856c-.136,2.266,1.015,3.332,3.055,4.669l2.428,1.576a2.217,2.217,0,0,1,1.29,2.351l-.1,1.707a1.884,1.884,0,0,1-3.753.151,1.692,1.692,0,0,1,.029-.373l.108-1.81-3.539-.211-.137,2.3c-.2,3.385,1.808,4.656,5.1,4.853l.062,0c3.291.2,5.441-.859,5.642-4.211l.187-3.136c.139-2.328-1.045-3.365-3.055-4.67l-2.459-1.577a2.194,2.194,0,0,1-1.264-2.288l.089-1.488a1.861,1.861,0,0,1,3.692-.209,1.677,1.677,0,0,1-.03.428l-.1,1.642Z" transform="translate(-506.096 -197.738)"/><path class="v" d="M537.957,177.06l10.614-5.923a43.892,43.892,0,0,1,18.383-5.462L838.3,147.059A364.755,364.755,0,0,1,902.28,148.3l26.741,2.875s-12.577,5.456-14.324,9.79c-.819,2.029-14.182.817-28.165-1.047a360.631,360.631,0,0,0-72.929-2.237Z" transform="translate(-486.833 -143.998)"/><path class="w" d="M1128.217,169.286l6.788,6.71,2.369.939-4.1-4.24a14.726,14.726,0,0,0-5.053-3.409Z" transform="translate(-661.607 -150.832)"/><path class="w" d="M1151.155,175.271l5.5,5.939,1.918.831-3.382-3.819a11.743,11.743,0,0,0-4.033-2.951Z" transform="translate(-668.399 -152.604)"/><path class="w" d="M1172.456,181.646l4.779,5.193,1.668.726-2.944-3.344a10.208,10.208,0,0,0-3.5-2.576Z" transform="translate(-674.707 -154.492)"/><path class="x" d="M1130.376,321.708l127.069,8.864s2.5-8.864,20.987-10.325l-84.28-5.091Z" transform="translate(-662.247 -194.024)"/><path class="y" d="M1365.293,334.844l-29.458,9.6,38.219,0S1369.349,333.523,1365.293,334.844Z" transform="translate(-723.083 -199.821)"/></g></g></svg>