<svg xmlns="http://www.w3.org/2000/svg" xmlns:xlink="http://www.w3.org/1999/xlink" width="841.176" height="406.728" viewBox="0 0 841.176 406.728"><defs><style>.a,.g{fill:#444;}.a{opacity:0.5;}.b{fill:#facb13;}.c{fill:#f68e20;}.d{fill:#f0f2f3;}.e{fill:#afafaf;}.f{fill:#156380;opacity:0.85;}.h{fill:#fff;}.i{fill:none;stroke:#f0f;stroke-miterlimit:10;}.j,.n,.p,.r,.s,.t,.v,.w,.x,.y{mix-blend-mode:screen;}.j,.n,.p,.r,.s,.t,.u,.v,.w,.x,.y{isolation:isolate;}.k,.w{fill:url(#a);}.l{fill:url(#c);}.m{fill:#f2f2f2;}.n{fill:url(#g);}.o{fill:#e72429;}.p{fill:url(#h);}.q{fill:#fbb03b;}.r{fill:url(#i);}.s{fill:url(#j);}.t{fill:url(#k);}.u{mix-blend-mode:multiply;}.v{fill:url(#l);}.x{fill:url(#p);}.y{fill:url(#q);}</style><linearGradient id="a" y1="0.5" x2="1" y2="0.5" gradientUnits="objectBoundingBox"><stop offset="0" stop-color="#fff"/><stop offset="1"/></linearGradient><linearGradient id="c" x1="0" y1="0.5" y2="0.5" xlink:href="#a"/><linearGradient id="g" x1="0.513" y1="0.333" x2="0.485" y2="0.719" xlink:href="#a"/><linearGradient id="h" x1="0.596" y1="0.13" x2="0.383" y2="0.916" xlink:href="#a"/><linearGradient id="i" x1="0.563" y1="0.092" x2="0.373" y2="1.089" xlink:href="#a"/><linearGradient id="j" x1="0.615" y1="0.081" x2="0.271" y2="1.067" xlink:href="#a"/><linearGradient id="k" x1="0.455" y1="-0.54" x2="0.53" y2="1.069" xlink:href="#a"/><linearGradient id="l" x1="0.498" y1="0.101" x2="0.5" y2="0.596" xlink:href="#a"/><linearGradient id="p" x1="0.519" y1="-0.7" x2="0.495" y2="0.648" xlink:href="#a"/><linearGradient id="q" x1="0.559" y1="-0.387" x2="0.508" y2="0.821" xlink:href="#a"/></defs><g transform="translate(-465.328 -143.07)"><path class="a" d="M607.319,511.47s236.322,19.427,247.76,30.865,64.508,16.012,136.337,17.156,105.514,17.157,105.514,17.157,124.121,29.738,151.017,19.444,76.077-9.151,73.218-27.45-52.316-23.137-52.316-23.137L783.324,488.9S583.737,495.474,607.319,511.47Z" transform="translate(-19.626 -48.461)"/><g transform="translate(465.328 143.07)"><path class="b" d="M1233.411,455.595h0c11.566,1,22.658-3.992,27.659-12.46l2.967-5.023c8.487-14.368,23.4-25.616,41.744-31.488l.795-.255a43.049,43.049,0,0,1,24.849-.324h0c16.539,4.8,30.07,14.656,37.666,27.436l9.294,15.637,1.539,3.287c2.862,6.114,9.381,10.637,17.307,12.006h0a9.163,9.163,0,0,0,7.516-1.94h0a10.361,10.361,0,0,0,3.654-7l.657-9.235c1.153-16.216-6.5-32.035-20.971-43.338h0c-16.9-13.2-39.974-19.975-63.446-18.625h0a107.4,107.4,0,0,0-34.606,7.768h0c-30.512,12.554-51.608,36.231-56.622,63.55Z" transform="translate(-572.959 -176.846)"/><g transform="translate(798.095 220.362)"><path class="b" d="M1410.826,408.236c0,4.912-1.248,8.893-2.787,8.893s-14.554-2.062-14.554-8.893c0-8.893,13.015-8.893,14.554-8.893S1410.826,403.324,1410.826,408.236Z" transform="translate(-1393.485 -399.343)"/><path class="c" d="M1408.04,399.343c-1.519,0-14.228,0-14.547,8.563,3.292-4.724,12.065-4.724,13.312-4.724,1.539,0,2.786,3.981,2.786,8.893a25.655,25.655,0,0,1-.32,4.131c.921-1.451,1.556-4.47,1.556-7.97C1410.827,403.324,1409.58,399.343,1408.04,399.343Z" transform="translate(-1393.486 -399.343)"/><ellipse class="d" cx="2.787" cy="8.893" rx="2.787" ry="8.893" transform="translate(11.768 0)"/><path class="e" d="M1410.3,399.343a1.1,1.1,0,0,0-.673.273c1.213.962,2.114,4.452,2.114,8.62s-.9,7.658-2.114,8.621a1.1,1.1,0,0,0,.673.272c1.539,0,2.787-3.981,2.787-8.893S1411.841,399.343,1410.3,399.343Z" transform="translate(-1395.747 -399.343)"/></g><path class="f" d="M1081.458,210.22l-3.292,75.448,127.761,12.223-9.155-60.151Z" transform="translate(-551.205 -152.479)"/><path class="g" d="M500.81,304.211l7.17-74.98a3.99,3.99,0,0,1,4.837-3.515l32.214,7.159a3.99,3.99,0,0,1,3.109,4.239l-5.058,58.369a3.989,3.989,0,0,0,3.8,4.329l44.854,1.955a3.988,3.988,0,0,0,4.133-4.478l-6.538-52.554a3.99,3.99,0,0,1,4.6-4.431l15.807,2.562a3.99,3.99,0,0,1,3.339,4.258l-3.882,48.254a3.988,3.988,0,0,0,3.917,4.309c1.734.026,3.5.057,4.214.082,1.35.046,5.969-39.834,7.4-52.5a3.985,3.985,0,0,1,4.261-3.525l21.936,1.642a3.989,3.989,0,0,1,3.613,4.767l-9.546,47.333a3.99,3.99,0,0,0,3.664,4.771l50.314,3.121a3.989,3.989,0,0,0,2.487-7.283l-12.233-8.3a3.989,3.989,0,0,1-1.749-3.42l1.163-39.048a3.99,3.99,0,0,1,3.991-3.87l69.959.046a3.989,3.989,0,0,1,3.979,4.231l-3.332,54.916a3.985,3.985,0,0,0,3.4,4.188c6.2.913,18.193,2.474,18.188.889-.006-2.137-1.525-67.893,0-67.512,1.3.324,50.482,1.473,65.273,1.812a3.987,3.987,0,0,1,3.886,4.255l-4.4,65.66a3.989,3.989,0,0,0,4.55,4.216c3.72-.54,8.244-1.3,8.467-1.832.328-.782.092-52.591.02-67.12a3.987,3.987,0,0,1,3.727-4l57.943-3.83a3.99,3.99,0,0,1,4.237,4.334l-4.813,54.217q-.015.177-.016.353V456.228a3.989,3.989,0,0,0,4.277,3.979l15.27-1.1a3.99,3.99,0,0,0,3.7-3.882l5.144-212.088a3.989,3.989,0,0,1,4.156-3.889l32.17,1.354,43.423.7a3.99,3.99,0,0,1,3.922,4.155l-4.083,97.86a3.99,3.99,0,0,0,4.137,4.153l16.463-.623a3.989,3.989,0,0,0,3.829-4.258l-6.584-96.575a3.99,3.99,0,0,1,4.324-4.246l58.237,5.037a3.989,3.989,0,0,1,3.644,4.065l-1.917,84.733a3.989,3.989,0,0,0,5.4,3.82h0a3.989,3.989,0,0,0,2.569-3.913l-3.555-77.132a3.861,3.861,0,0,0-.049-.468l-4.156-25.121a3.989,3.989,0,0,0-2.281-2.979L991.968,175.2a4,4,0,0,0-1.778-.357L554.465,188.343a3.99,3.99,0,0,0-2.016.621l-50.525,32.108a3.993,3.993,0,0,0-1.8,2.743l-12.441,78.544a3.989,3.989,0,0,0,3.3,4.562l5.217.85A3.991,3.991,0,0,0,500.81,304.211Z" transform="translate(-468.454 -147.522)"/><path class="g" d="M1366.1,333.139V326.83l-.911-2.841-48.445-1.34s-30.759-4.466-19.037,23.6,23.59,44.046,23.59,44.046,48.754-9.975,48.754-11.119S1366.1,333.139,1366.1,333.139Z" transform="translate(-581.596 -168.198)"/><path d="M1290.113,445.728c-3.14-32.85-21.277-57.074-43.9-57.743-8.8-.261-22.616-2.64-34.109-1.1-.064,0-.126-.011-.19-.013-.853-.025-1.7-.016-2.543.023-18.751-6.537-35.929-12.117-35.929-12.117l-197.3,78.232-10.294,29.525H909.795L897.549,448.9,796.08,421.151C791.829,407,782.5,397.4,771.4,397.068c-5.385-.159-13.834-1.615-20.864-.672-.04,0-.077-.007-.117-.008-6.4-.189-12.4,2.618-17.383,7.525L540.366,351.231c-.858,2.82-26.031,52.555-26.031,52.555l99.108,17.568,59.1,19.954s29.119,32.7,49.373,15.444c4.194,14.511,13.815,24.839,25.355,25.533.2.021.409.035.627.042,6.653.2,19.056,4.431,29.541-.706,8.575-4.2,17.511-15.43,20.271-31.874l71.74,8.729,5.422,45.537L997.7,508.46l29.9-30.4,48.167,4.476,99.426,24.528c8.069,11.884,19.138,19.486,31.576,20.234.328.034.669.058,1.024.068,10.875.322,31.153,7.244,48.293-1.153C1274.6,517.145,1294.16,488.054,1290.113,445.728Z" transform="translate(-472.195 -172.239)"/><g transform="translate(140.153 224.371)"><g transform="translate(19.744 0.549)"><path d="M711.357,440.954c2.476,25.89-9.488,43.685-20.811,49.233-10.484,5.136-22.889.9-29.541.706-13.839-.409,6.155-31.264-2.628-49.472-21.788-45.172,12.289-36.2,26.127-35.789S709.436,420.859,711.357,440.954Z" transform="translate(-651.283 -404.644)"/></g><ellipse class="g" cx="42.988" cy="29.488" rx="42.988" ry="29.488" transform="translate(0 85.941) rotate(-88.334)"/><g transform="translate(12.522 17.862)"><ellipse class="d" cx="25.469" cy="17.47" rx="25.469" ry="17.47" transform="translate(0 50.916) rotate(-88.334)"/></g><g transform="translate(17.559 21.854)"><ellipse class="e" cx="21.246" cy="14.324" rx="21.246" ry="14.324" transform="translate(0 42.473) rotate(-88.333)"/></g><g transform="translate(18.426 22.267)"><path class="h" d="M664.233,431.255c7.907.234,14.039,9.931,13.7,21.659a31.384,31.384,0,0,1-.249,3.141,31.346,31.346,0,0,0,.458-4.491c.343-11.729-5.788-21.426-13.7-21.659-7.187-.213-13.366,7.465-14.691,17.672C651.422,438.053,657.368,431.052,664.233,431.255Z" transform="translate(-649.75 -429.901)"/></g><g transform="translate(16.063 31.998)"><ellipse class="g" cx="12.401" cy="8.882" rx="12.401" ry="8.882" transform="translate(0 24.792) rotate(-88.336)"/></g></g><g transform="translate(104.702 222.884)"><g transform="translate(21.925 0.61)"><path d="M679.3,443.307c2.748,28.751-10.536,48.512-23.112,54.672-11.643,5.7-25.417,1-32.8.784-15.367-.455,6.836-34.718-2.917-54.938-24.2-50.163,13.647-40.2,29.014-39.742S677.171,420.992,679.3,443.307Z" transform="translate(-612.592 -402.985)"/></g><ellipse class="g" cx="47.738" cy="32.746" rx="47.738" ry="32.746" transform="translate(0 95.436) rotate(-88.334)"/><g transform="translate(13.905 19.835)"><ellipse class="d" cx="28.283" cy="19.4" rx="28.283" ry="19.4" transform="translate(0 56.542) rotate(-88.334)"/></g><g transform="translate(19.499 24.269)"><ellipse class="e" cx="23.593" cy="15.906" rx="23.593" ry="15.906" transform="translate(0 47.166) rotate(-88.333)"/></g><g transform="translate(20.462 24.727)"><path class="h" d="M626.973,432.537c8.781.26,15.59,11.029,15.209,24.053-.035,1.187-.13,2.351-.277,3.488a34.868,34.868,0,0,0,.507-4.987c.382-13.024-6.428-23.793-15.209-24.053-7.98-.236-14.842,8.291-16.313,19.626C612.747,440.086,619.349,432.312,626.973,432.537Z" transform="translate(-610.89 -431.032)"/></g><path class="g" d="M618.564,443.933c-5.445-.161-10.039,5.871-10.263,13.473s4.01,13.9,9.456,14.057,10.04-5.872,10.262-13.474S624.009,444.093,618.564,443.933Zm-3.531,21.447c-3.038-.09-5.4-3.6-5.276-7.845s2.688-7.609,5.727-7.519,5.4,3.6,5.276,7.844S618.072,465.469,615.034,465.379Z" transform="translate(-590.064 -408.113)"/></g><g transform="translate(589.333 248.041)"><g transform="translate(32.277 0.898)"><path d="M1286.448,491.936c4.046,42.325-15.51,71.416-34.023,80.486-17.14,8.4-37.417,1.475-48.293,1.153-22.623-.669,10.063-51.11-4.3-80.876-35.62-73.847,20.089-59.175,42.711-58.506S1283.307,459.086,1286.448,491.936Z" transform="translate(-1188.239 -432.577)"/></g><g transform="translate(0)"><ellipse class="g" cx="70.277" cy="48.206" rx="70.277" ry="48.206" transform="translate(0 140.495) rotate(-88.334)"/></g><g transform="translate(20.47 29.2)"><ellipse class="d" cx="41.636" cy="28.56" rx="41.636" ry="28.56" transform="translate(0 83.237) rotate(-88.334)"/></g><g transform="translate(28.704 35.727)"><ellipse class="e" cx="34.732" cy="23.416" rx="34.732" ry="23.416" transform="translate(0 69.435) rotate(-88.333)"/></g><g transform="translate(30.122 36.401)"><path class="h" d="M1209.41,476.08c12.927.383,22.951,16.235,22.389,35.409-.052,1.747-.191,3.461-.408,5.134a51.151,51.151,0,0,0,.747-7.342c.563-19.173-9.462-35.027-22.388-35.409-11.748-.347-21.85,12.206-24.016,28.891C1188.467,487.193,1198.186,475.749,1209.41,476.08Z" transform="translate(-1185.733 -473.866)"/></g><path class="g" d="M1197.031,492.856c-8.016-.237-14.779,8.643-15.108,19.835s5.9,20.456,13.92,20.693,14.78-8.643,15.108-19.836S1205.046,493.093,1197.031,492.856Zm-4.543,31c-4.247-.126-7.549-5.035-7.375-10.964s3.758-10.635,8-10.509,7.55,5.035,7.376,10.964S1196.733,523.983,1192.487,523.857Z" transform="translate(-1155.075 -440.125)"/></g><path class="f" d="M765.665,277.482l-85.192-.738V227.664l87.447-2.709Zm-168.57-1.461,74.816.648,1.506-48.787L598.6,230.2Zm-9.267-.08V230.533l-39.867,1.235a21.673,21.673,0,0,0-20.409,16.626l-6.444,26.969Zm186.816-51.194V277.56l98.364.852,3.05-56.807Z" transform="translate(-473.145 -154.075)"/><path class="g" d="M1045.849,474.71c-.082,0-.162,0-.245-.009-43.131-3.082-44.181-3.432-44.686-3.6-2.467-.822-2.459-2.773-2.447-6.314.007-1.926.05-4.791.127-8.515.144-6.9.411-17.03.8-30.1.648-22,1.636-52.643,2.937-91.082,2.214-65.442,4.6-131.689,4.624-132.35a3.438,3.438,0,0,1,3.437-3.316h33.572a13.749,13.749,0,0,1,13.743,14.2l-8.422,257.757a3.439,3.439,0,0,1-3.438,3.327Zm-40.508-9.963c6.679.6,24.152,1.9,37.187,2.838l8.3-254.183a6.871,6.871,0,0,0-6.868-7.1H1013.71C1011.211,275.827,1005.426,441.407,1005.341,464.747Zm-14.774,6.532h-48.8a3.44,3.44,0,0,1-3.438-3.544l7.712-255.2a13.458,13.458,0,0,1,13.516-13.113H1000.1a3.437,3.437,0,0,1,3.437,3.563L994,467.963A3.439,3.439,0,0,1,990.567,471.279ZM945.311,464.4h41.938l9.284-258.094H959.555a6.612,6.612,0,0,0-6.64,6.441Zm95.451-57.172H1015.34a3.441,3.441,0,0,1-3.439-3.485l.794-60.619a3.441,3.441,0,0,1,3.44-3.394h25.422a3.44,3.44,0,0,1,3.439,3.484l-.795,60.619A3.44,3.44,0,0,1,1040.762,407.228Zm-21.937-6.879h18.542l.7-53.74H1019.53Zm-36.272,6.879H955.005a3.44,3.44,0,0,1-3.44-3.488l.86-60.619a3.44,3.44,0,0,1,3.44-3.39h27.548a3.44,3.44,0,0,1,3.439,3.488l-.86,60.619A3.44,3.44,0,0,1,982.553,407.228Zm-24.059-6.879h20.668l.762-53.74H959.255ZM1044.2,282.557H1018.78a3.438,3.438,0,0,1-3.439-3.484l.794-60.62a3.441,3.441,0,0,1,3.439-3.395H1045a3.44,3.44,0,0,1,3.439,3.485l-.795,60.62A3.44,3.44,0,0,1,1044.2,282.557Zm-21.937-6.879h18.542l.7-53.741h-18.542Zm-36.272,6.879H958.444a3.438,3.438,0,0,1-3.439-3.488l.86-60.62a3.44,3.44,0,0,1,3.439-3.391h27.548a3.441,3.441,0,0,1,3.44,3.488l-.86,60.62A3.44,3.44,0,0,1,985.992,282.557Zm-24.059-6.879H982.6l.762-53.741H962.695Z" transform="translate(-531.609 -150.967)"/><path class="b" d="M916.44,143.194l-119.822,7.183a.062.062,0,0,1-.064-.048,6.347,6.347,0,0,0-6.581-4.955l-24.417,1.489a6.407,6.407,0,0,0-2.633.745l-15.146,8.1a.062.062,0,0,1-.028.007l-60.758,2.447a.06.06,0,0,1-.05-.024,8.035,8.035,0,0,0-6.525-3.09l-25.621.611a8.088,8.088,0,0,0-4.3,1.357l-8.329,5.552a.06.06,0,0,1-.03.01l-82.419,6.776a77.532,77.532,0,0,0-70.091,64.317L465.565,375.66a16.561,16.561,0,0,0,14.772,19.256l71.04,6.707a.063.063,0,0,0,.061-.032l11.33-20.433a30.791,30.791,0,0,1,26.763-16.1,30.243,30.243,0,0,1,28.826,21.193l8.157,26.013a.063.063,0,0,0,.053.044l202.193,22.276a35.665,35.665,0,0,1,29.93,24.174h0a6.78,6.78,0,0,0,6.431,4.635h.406a7.525,7.525,0,0,0,7.521-7.287L881.2,198.8v0c-2.416-45.242,29.268-54.193,35.254-55.477A.064.064,0,0,0,916.44,143.194Zm-343.272,121.7-53.59-.464a5.006,5.006,0,0,1-4.826-6.169l3.946-16.516a27.511,27.511,0,0,1,25.905-21.1l30.2-.936a5.049,5.049,0,0,1,5.2,5.047V258.11A6.785,6.785,0,0,1,573.168,264.894Zm86.866.752-66.5-.576a4.152,4.152,0,0,1-4.114-4.289l1.24-37.676a4.152,4.152,0,0,1,4.022-4.014l66.506-2.06a4.153,4.153,0,0,1,4.28,4.279l-1.244,40.312A4.152,4.152,0,0,1,660.034,265.646Zm93.242.808-75.928-.658a4.732,4.732,0,0,1-4.691-4.732v-39.8a4.733,4.733,0,0,1,4.586-4.73l77.769-2.409a4.732,4.732,0,0,1,4.874,4.932l-1.841,42.87A4.732,4.732,0,0,1,753.276,266.455Zm108.018.936-90.424-.783a4.078,4.078,0,0,1-4.042-4.078V217.712a4.078,4.078,0,0,1,3.951-4.076l93.028-2.881a4.078,4.078,0,0,1,4.2,4.294l-2.6,48.484A4.077,4.077,0,0,1,861.293,267.391Z" transform="translate(-465.328 -143.087)"/><g transform="translate(0 0.048)"><path class="c" d="M794.326,229.6h0L792.5,272.082a6.754,6.754,0,0,1-6.806,6.464l-75.071-.651v3.376l77.223.669a8.246,8.246,0,0,0,8.31-7.892l1.753-40.822A3.48,3.48,0,0,0,794.326,229.6Z" transform="translate(-499.701 -155.243)"/><path class="c" d="M588.532,236.08h0v34.648a7.179,7.179,0,0,1-7.241,7.178l-55.079-.477h0a2.757,2.757,0,0,0,2.658,3.4l53.8.467a9.373,9.373,0,0,0,9.453-9.373V239.564A3.486,3.486,0,0,0,588.532,236.08Z" transform="translate(-473.849 -156.151)"/><path class="c" d="M686.277,233h0l-1.131,36.645a8.817,8.817,0,0,1-8.89,8.545l-62.488-.541-.112,3.374,65.731.57a9.29,9.29,0,0,0,9.367-9l1.111-36A3.481,3.481,0,0,0,686.277,233Z" transform="translate(-486.113 -155.72)"/><path class="c" d="M854.385,153.776l105.3-6.311a40.591,40.591,0,0,1,11.969-4.34L852.291,150.28A6.322,6.322,0,0,1,854.385,153.776Z" transform="translate(-519.553 -143.126)"/><path class="c" d="M925.158,511.5a35.628,35.628,0,0,0-11.152-16.23,35.6,35.6,0,0,1,7.557,12.823,6.763,6.763,0,0,0,3.9,4.122A6.785,6.785,0,0,1,925.158,511.5Z" transform="translate(-528.201 -192.472)"/><path class="c" d="M645.857,427.456a30.2,30.2,0,0,0-9.927-14.524,30.175,30.175,0,0,1,6.332,11.116l8.169,26.052,2.617.288Z" transform="translate(-489.235 -180.934)"/><path class="c" d="M469.158,379.42l24.074-142.036a77.469,77.469,0,0,1,70.035-64.263l82.484-6.781,8.357-5.571a8.04,8.04,0,0,1,4.264-1.347l25.64-.61a8.031,8.031,0,0,1,6.544,3.114l60.8-2.448,15.171-8.115a6.343,6.343,0,0,1,2.607-.739l24.431-1.49a6.329,6.329,0,0,1,2.608.4,6.346,6.346,0,0,0-6.2-3.8l-24.431,1.49a6.342,6.342,0,0,0-2.607.738l-15.171,8.115-60.8,2.448a8.034,8.034,0,0,0-6.544-3.114l-25.64.611a8.031,8.031,0,0,0-4.264,1.347l-8.357,5.572-82.485,6.781a77.468,77.468,0,0,0-70.033,64.263L465.565,376.013a16.556,16.556,0,0,0,6.871,16.366A16.5,16.5,0,0,1,469.158,379.42Z" transform="translate(-465.328 -143.489)"/><path class="c" d="M917.772,225.7h0l-2.653,49.41a4.056,4.056,0,0,1-4.086,3.839l-90.892-.788v3.376l90.4.783a8.325,8.325,0,0,0,8.386-7.879l2.421-45.08A3.478,3.478,0,0,0,917.772,225.7Z" transform="translate(-515.048 -154.697)"/></g><path class="b" d="M1182.566,238.132a79.1,79.1,0,0,0-36.39-60.543l-.992-.631a158.13,158.13,0,0,0-43.36-19.168l-16.474-4.485a258.885,258.885,0,0,0-59.076-8.936l-36.281-1.251s-40.435-3.789-42.319,55.663l-8.006,264.593,109.8,6.863a24.6,24.6,0,0,0,18.4-8.268l4.1-4.614h0a104.166,104.166,0,0,1,19.688-51.908l7-9.556,1.526-81.97s1.144-19.063,9.531-20.588l77.014-2.288ZM1050.231,465.661l-109.492-4.027,7.708-257.251a12.666,12.666,0,0,1,12.7-12.286l70.932.2,7.764.781a20.227,20.227,0,0,1,18.195,20.752Zm31.51-193.418c-4.955-.224-10.969-.5-15.442-.7a6.324,6.324,0,0,1-6.016-6.738l3.119-46.946a4.825,4.825,0,0,1,9.406-1.16l15.234,47.289A6.324,6.324,0,0,1,1081.741,272.242Zm96.178,8.561-71.871-7.384a16.5,16.5,0,0,1-14.284-12.263l-9.642-37.09a6.63,6.63,0,0,1,7.643-8.183l78.358,14.753a13.616,13.616,0,0,1,11.03,12.031l3.344,33.572A4.172,4.172,0,0,1,1177.919,280.8Z" transform="translate(-531.797 -143.07)"/><g transform="translate(407.87 9.044)"><path class="c" d="M1055.271,470.566l7.8-251.828a20.228,20.228,0,0,0-18.195-20.753l-7.764-.781-70.932-.2a12.64,12.64,0,0,0-10.106,5,12.6,12.6,0,0,1,7.366-2.351l70.932.2,7.764.781a20.227,20.227,0,0,1,18.195,20.752l-7.718,249.078Z" transform="translate(-941.967 -159.671)"/><path class="c" d="M1209,285l-3.344-33.573a13.617,13.617,0,0,0-11.03-12.031l-78.358-14.753a6.614,6.614,0,0,0-7.019,3.286,6.545,6.545,0,0,1,4.279-.633l78.358,14.753a13.616,13.616,0,0,1,11.03,12.031l3.344,33.572a4.152,4.152,0,0,1-.2,1.75A4.17,4.17,0,0,0,1209,285Z" transform="translate(-963.431 -163.528)"/><path class="c" d="M1111.451,272.58l-15.234-47.289c-.954-2.358-4.314-2.676-9.057-.367a4.759,4.759,0,0,1,6.317,3.019l15.234,47.289a6.257,6.257,0,0,1-.47,4.958A6.328,6.328,0,0,0,1111.451,272.58Z" transform="translate(-960.335 -163.363)"/><path class="c" d="M1052.208,469.057l-71.928-4.5-39.541-1.454,7.708-257.251a12.593,12.593,0,0,1,1.907-6.29l.059-1.964c.715-22.558,6.981-36.006,14.482-44.016-8.661,7.568-16.422,21.408-17.222,46.668l-8.006,264.593,109.8,6.863a24.6,24.6,0,0,0,18.4-8.268l.049-.056A24.6,24.6,0,0,1,1052.208,469.057Z" transform="translate(-939.667 -153.587)"/><path class="c" d="M1139.836,314.378a7.543,7.543,0,0,0-4.711,3.4,6.011,6.011,0,0,1,1.971-.749l77.014-2.288-.2-2.564Z" transform="translate(-967.056 -175.81)"/></g><path class="e" d="M1395.037,465.857s11.438-77.621-22.3-137.192c0,0,1.706-3.444-39.751-4.2,0,0-11.718,2.818-12,7.607,0,0-2.982,8.053,3.427,22.226,5.015,11.09,15.988,49.668,15.988,49.668a36.07,36.07,0,0,0,7.975,16.66c2.128,2.536,4.65,6.57,7.207,12.982,6.577,16.487,5.433,37.647,5.433,37.647Z" transform="translate(-585.133 -168.488)"/><path class="i" d="M1039.429,376.791" transform="translate(-545.776 -175.821)"/><g transform="translate(7.173 214.666)"><path class="g" d="M869.486,490.985a2.715,2.715,0,0,1-2.726,2.64h-.473a2.054,2.054,0,0,1-1.943-1.393,40.5,40.5,0,0,0-33.9-27.387L631.284,442.91l-7.249-23.1a35.134,35.134,0,0,0-2.27-5.538A31.854,31.854,0,0,0,619.848,411a34.966,34.966,0,0,0-53.26-6.088c-.516.49-1.015,1-1.5,1.522a34.716,34.716,0,0,0-5,6.87l-10.138,18.289-68-6.423a11.717,11.717,0,0,1-8.281-4.575l2.046-1.574a9.208,9.208,0,0,0,6.475,3.586l66.322,6.26,9.321-16.81a37.45,37.45,0,0,1,14.6-14.609A36.839,36.839,0,0,1,577,395.3a37.315,37.315,0,0,1,13.663-2.58,37.833,37.833,0,0,1,3.955.206,37.317,37.317,0,0,1,15.211,5.056h.009a34.728,34.728,0,0,1,4.119,2.846h.009a37.005,37.005,0,0,1,8.882,10.086,35.974,35.974,0,0,1,1.909,3.6,38.006,38.006,0,0,1,1.745,4.514l6.733,21.5,197.5,21.755a43.1,43.1,0,0,1,35.943,28.763h.086a.14.14,0,0,0,.146-.146Z" transform="translate(-473.67 -392.719)"/></g><path class="g" d="M1328.961,353.661s6.863,16.954,11.247,22.9,18.3,35.876,20.588,42.357,6.286,21.425,8.2,27.26-.252,14.106,10.454,17.728l15.281,2.669s5.581-70.533-12.65-111.9Z" transform="translate(-586.348 -172.58)"/><g transform="translate(739.706 178.992)"><g transform="translate(9.579 2.106)"><path d="M1346.591,396.6c8.523.16,41.2.782,47.98,1.037a1.42,1.42,0,0,1,1.216,1.527h0a1.4,1.4,0,0,1-1.317,1.527h-47.221a2.045,2.045,0,0,1-1.861-1.542l-.091-.282A1.644,1.644,0,0,1,1346.591,396.6Z" transform="translate(-1337.909 -359.694)"/><path d="M1353.945,420.982c7.867.16,38.025.783,44.288,1.037a1.4,1.4,0,0,1,1.122,1.528h0c0,.871-.553,1.566-1.215,1.527h-43.588a1.931,1.931,0,0,1-1.717-1.542l-.084-.282C1352.424,422.15,1353.047,420.964,1353.945,420.982Z" transform="translate(-1338.955 -363.111)"/><path d="M1370.082,446.7c5.472.112,26.452.544,30.808.721a.971.971,0,0,1,.781,1.063h0c0,.606-.384,1.089-.845,1.062H1370.5a1.344,1.344,0,0,1-1.2-1.072l-.058-.2C1369.023,447.509,1369.456,446.683,1370.082,446.7Z" transform="translate(-1341.271 -366.714)"/><path d="M1374.675,469.633c4.883.111,23.605.544,27.494.721.39.017.7.488.7,1.063h0c0,.605-.343,1.089-.754,1.062h-27.059c-.471,0-.894-.426-1.066-1.072l-.052-.2C1373.73,470.445,1374.117,469.62,1374.675,469.633Z" transform="translate(-1341.928 -369.928)"/><path d="M1338.072,353.68c8.288.16,40.06.783,46.657,1.037a1.41,1.41,0,0,1,1.182,1.528h0a1.385,1.385,0,0,1-1.28,1.527h-45.919a2,2,0,0,1-1.809-1.542l-.089-.282C1336.469,354.848,1337.125,353.662,1338.072,353.68Z" transform="translate(-1336.721 -353.68)"/><path d="M1344.111,372.657c8.217.161,39.719.783,46.261,1.037a1.409,1.409,0,0,1,1.172,1.528h0a1.382,1.382,0,0,1-1.269,1.527h-45.529a1.992,1.992,0,0,1-1.795-1.542l-.087-.282C1342.522,373.825,1343.172,372.639,1344.111,372.657Z" transform="translate(-1337.569 -356.339)"/></g><path class="e" d="M1336.077,388.905c10.3.163,49.809.8,58.012,1.059a1.539,1.539,0,0,1,1.47,1.56h0a1.541,1.541,0,0,1-1.592,1.559h-57.095a2.418,2.418,0,0,1-2.25-1.574l-.11-.288A1.691,1.691,0,0,1,1336.077,388.905Zm6.184,23.133.1.288a2.247,2.247,0,0,0,2.077,1.574h52.7a1.48,1.48,0,0,0,1.469-1.559h0a1.49,1.49,0,0,0-1.357-1.559c-7.572-.26-44.036-.9-53.547-1.058A1.679,1.679,0,0,0,1342.261,412.038Zm17.149,21.407.071.2a1.564,1.564,0,0,0,1.445,1.095h36.661a1.029,1.029,0,0,0,1.021-1.084h0a1.036,1.036,0,0,0-.943-1.084c-5.268-.181-30.634-.623-37.251-.737A1.169,1.169,0,0,0,1359.411,433.446Zm4.219,19.723.063.2a1.427,1.427,0,0,0,1.29,1.095H1397.7a.984.984,0,0,0,.911-1.084h0a1,1,0,0,0-.842-1.085c-4.7-.181-27.338-.623-33.243-.736C1363.851,451.545,1363.383,452.387,1363.629,453.169Zm-37.937-99.622.107.287a2.354,2.354,0,0,0,2.188,1.574h55.521a1.518,1.518,0,0,0,1.548-1.559h0a1.521,1.521,0,0,0-1.43-1.56c-7.977-.26-46.392-.9-56.413-1.059A1.686,1.686,0,0,0,1325.693,353.547Zm6.29,16.657.106.288a2.336,2.336,0,0,0,2.169,1.574h55.05a1.511,1.511,0,0,0,1.534-1.559h0a1.515,1.515,0,0,0-1.417-1.559c-7.91-.26-46-.9-55.934-1.059A1.685,1.685,0,0,0,1331.983,370.2Z" transform="translate(-1325.58 -351.231)"/><g class="j" transform="translate(0)"><path class="k" d="M1334.379,374.3l-.106-.288a1.685,1.685,0,0,1,1.508-2.316c9.936.164,48.025.8,55.934,1.059.028,0,.052.009.08.011a1.473,1.473,0,0,0-1.346-1.1c-7.91-.26-46-.9-55.934-1.059a1.685,1.685,0,0,0-1.508,2.316l.106.288a2.394,2.394,0,0,0,1.428,1.442A2.589,2.589,0,0,1,1334.379,374.3Z" transform="translate(-1326.606 -353.945)"/><path class="k" d="M1327.066,354.922l-.108-.287a1.686,1.686,0,0,1,1.521-2.316c10.02.163,48.436.8,56.414,1.058.031,0,.06.009.092.013a1.485,1.485,0,0,0-1.359-1.1c-7.977-.26-46.392-.9-56.413-1.059a1.686,1.686,0,0,0-1.521,2.316l.107.287a2.406,2.406,0,0,0,1.426,1.436A2.493,2.493,0,0,1,1327.066,354.922Z" transform="translate(-1325.58 -351.231)"/><path class="l" d="M1337.326,398.737l-.11-.288a1.691,1.691,0,0,1,1.564-2.316c10.3.163,49.809.8,58.013,1.059.045,0,.088.013.131.018a1.517,1.517,0,0,0-1.4-1.107c-8.2-.259-47.708-.9-58.011-1.059a1.69,1.69,0,0,0-1.564,2.316l.109.288a2.437,2.437,0,0,0,1.421,1.416A2.481,2.481,0,0,1,1337.326,398.737Z" transform="translate(-1327.017 -357.37)"/><path class="k" d="M1346.33,422.947l-.1-.288a1.679,1.679,0,0,1,1.444-2.315c9.512.163,45.976.8,53.548,1.059l.021,0a1.424,1.424,0,0,0-1.286-1.091c-7.573-.26-44.036-.9-53.548-1.059a1.68,1.68,0,0,0-1.444,2.315l.1.288a2.337,2.337,0,0,0,1.438,1.468A2.574,2.574,0,0,1,1346.33,422.947Z" transform="translate(-1328.281 -360.763)"/><path class="l" d="M1366.178,447.67a1.169,1.169,0,0,1,1-1.611c6.5.112,31.047.54,36.928.727a1.035,1.035,0,0,0-.943-1.078c-5.268-.181-30.634-.623-37.251-.737a1.169,1.169,0,0,0-1,1.611l.071.2a1.572,1.572,0,0,0,1.257,1.063Z" transform="translate(-1331.082 -364.366)"/><path class="k" d="M1371.148,470.807l-.063-.2c-.246-.782.222-1.623.9-1.611,5.746.111,27.326.532,32.817.721a1,1,0,0,0-.84-1.073c-4.7-.181-27.338-.623-33.243-.736-.674-.013-1.142.829-.9,1.611l.063.2a1.431,1.431,0,0,0,1.267,1.09Z" transform="translate(-1331.77 -367.581)"/></g></g><path class="f" d="M988.71,282.225H961.162l.86-60.62H989.57Zm-2.58,64.051H958.583l-.86,60.62h27.548Z" transform="translate(-534.327 -154.075)"/><path class="b" d="M960.116,203.427a10.083,10.083,0,0,0-10.079,9.778l-7.71,255.2h48.8l9.531-264.973Zm23,200.922H955.566l.86-60.62h27.548Zm3.439-124.671H959.005l.86-60.62h27.548Z" transform="translate(-532.17 -151.527)"/><path class="f" d="M1056.752,282.225H1031.33l.794-60.62h25.421Zm-2.646,64.051h-25.421l-.794,60.62h25.421Z" transform="translate(-544.16 -154.075)"/><path class="b" d="M1054.327,203.427h-33.572s-9.532,264.592-8.388,264.973,43.845,3.432,43.845,3.432l8.421-257.757A10.311,10.311,0,0,0,1054.327,203.427Zm-3.2,200.922H1025.7l.794-60.62h25.421Zm3.439-124.671h-25.422l.794-60.62h25.421Z" transform="translate(-541.971 -151.527)"/><g transform="translate(419.632 51.9)"><path class="c" d="M958.153,227.724l-.807,56.886h27.548l.029-2.05H961.11l.831-58.569h0A3.787,3.787,0,0,0,958.153,227.724Z" transform="translate(-953.907 -206.308)"/><path class="c" d="M953.346,429.6h27.548l.029-2.05H957.11l.831-58.569h0a3.787,3.787,0,0,0-3.787,3.734Z" transform="translate(-953.346 -226.626)"/><path class="c" d="M961.943,203.427a10.038,10.038,0,0,0-6.577,2.453,10.067,10.067,0,0,1,2.813-.4h30.082a10.091,10.091,0,0,1,10.085,10.454L989.266,468.4h3.69l9.531-264.973Z" transform="translate(-953.629 -203.427)"/></g><g transform="translate(478.71 51.9)"><path class="c" d="M1028.308,223.99l-.794,60.62h25.422l.027-2.05h-21.685l.767-58.57Z" transform="translate(-1022.817 -206.308)"/><path class="c" d="M1023.515,429.6h25.421l.027-2.05h-21.685l.767-58.569h0a3.785,3.785,0,0,0-3.785,3.735Z" transform="translate(-1022.256 -226.626)"/><path class="c" d="M1055.7,203.427h-33.572s-.026.715-.074,2.05h29.883a10.311,10.311,0,0,1,10.306,10.648l-8.346,255.441,3.688.266L1066,214.075A10.311,10.311,0,0,0,1055.7,203.427Z" transform="translate(-1022.051 -203.427)"/></g><g transform="translate(42.14 54.422)"><path class="g" d="M516.832,269.738l-2.5-.648,6.271-24.16a37.128,37.128,0,0,1,34.522-27.624l332.9-10.944.083,2.578-332.9,10.944A34.536,34.536,0,0,0,523.1,245.578Z" transform="translate(-514.335 -206.361)"/></g><path class="g" d="M1080.316,306.965v.511h0a6.5,6.5,0,0,0-6.743,6.219v50.958a4.457,4.457,0,0,0,3.372,4.206h0a2.832,2.832,0,0,1-4.265,2.239l-.323-.176a4.338,4.338,0,0,1-2.334-3.847l.914-57.163a6.365,6.365,0,0,1,5.28-5.98h0A3.31,3.31,0,0,1,1080.316,306.965Z" transform="translate(-550.063 -165.601)"/><path class="m" d="M1080.447,306.965v.511h0a6.219,6.219,0,0,0-6.219,6.219v50.958a4.4,4.4,0,0,0,3.11,4.206h0a2.6,2.6,0,0,1-3.934,2.239l-.3-.176a4.4,4.4,0,0,1-2.152-3.847l.844-57.163a6.219,6.219,0,0,1,4.87-5.98h0A3.107,3.107,0,0,1,1080.447,306.965Z" transform="translate(-550.194 -165.601)"/><path class="b" d="M1120.218,205.521c-.722-5.374-3.809-9.4-6.888-8.977-1.745.232-3.113,1.849-3.844,4.188a14.811,14.811,0,0,0-.413,6.294c.611,4.54,2.906,8.109,5.46,8.848a3.358,3.358,0,0,0,1.427.129C1119.04,215.582,1120.949,210.887,1120.218,205.521Zm75.669,17.283c-.593-4.394-2.571-7.747-4.42-7.5-1.135.146-1.961,1.617-2.287,3.74a16.566,16.566,0,0,0,.009,4.661c.516,3.775,2.038,6.784,3.637,7.395a1.58,1.58,0,0,0,.791.1C1195.466,230.956,1196.48,227.19,1195.887,222.8Z" transform="translate(-555.514 -150.559)"/><path class="n" d="M1115.481,209.5c-.636-4.712-3.293-8.263-5.993-8.083a14.811,14.811,0,0,0-.413,6.294c.611,4.54,2.906,8.109,5.46,8.848A12.166,12.166,0,0,0,1115.481,209.5Zm77.586,16.974c-.524-3.878-2.253-6.862-3.887-6.741a16.566,16.566,0,0,0,.009,4.661c.516,3.775,2.038,6.784,3.637,7.395A13.343,13.343,0,0,0,1193.067,226.475Z" transform="translate(-555.514 -151.245)"/><g transform="translate(555.409 45.953)"><path class="g" d="M1113.659,196.541a3.85,3.85,0,0,0-2.409,1.435,3.346,3.346,0,0,1,1.168-.393c3.078-.416,6.161,3.6,6.888,8.975.509,3.763-.277,7.187-1.849,9.047,2.371-1.3,3.719-5.434,3.09-10.089C1119.82,200.144,1116.736,196.125,1113.659,196.541Z" transform="translate(-1111.25 -196.512)"/><path class="g" d="M1209.112,225.862c-.593-4.391-2.574-7.747-4.425-7.5a2.059,2.059,0,0,0-1.408,1.085,1.4,1.4,0,0,1,.167-.043c1.85-.25,3.831,3.106,4.425,7.5.417,3.084.035,5.853-.869,7.317C1208.745,233.77,1209.687,230.116,1209.112,225.862Z" transform="translate(-1124.146 -199.572)"/></g><g transform="translate(568.57 21.428)"><path class="o" d="M1133.2,181.963l.919,1.311a5.351,5.351,0,0,0,8.012.862h0a2.682,2.682,0,0,0-.028-3.966l-5.968-5.356Z" transform="translate(-1127.487 -168.946)"/><path class="p" d="M1142.469,180.17l-5.968-5.356-.729,1.776,5.552,4.984a2.675,2.675,0,0,1,.709,2.945,5.667,5.667,0,0,0,.463-.383A2.682,2.682,0,0,0,1142.469,180.17Z" transform="translate(-1127.847 -168.946)"/><path class="q" d="M1126.555,169.351v1.843a7.319,7.319,0,0,0,.935,3.582L1133,184.6a.294.294,0,0,0,.551-.149c-.071-2.54.077-8.033,2.728-7.149,2.745.915,5.368,2.2,6.015,3.55a.73.73,0,0,0,1.078.33l.19-.133a.715.715,0,0,0,.078-1.108l-7.657-7.156a22.889,22.889,0,0,0-7.588-4.706h0A1.36,1.36,0,0,0,1126.555,169.351Z" transform="translate(-1126.555 -167.99)"/></g><g transform="translate(587.632 27.105)"><path class="o" d="M1154.144,185.978l.749,1.07a4.361,4.361,0,0,0,6.529.7h0a2.186,2.186,0,0,0-.023-3.232l-4.862-4.364Z" transform="translate(-1149.484 -175.371)"/><path class="r" d="M1161.719,184.517l-4.863-4.364-.433,1.054,4.27,3.833a2.185,2.185,0,0,1,.022,3.231,4.365,4.365,0,0,1-.488.384,4.334,4.334,0,0,0,1.514-.907h0A2.186,2.186,0,0,0,1161.719,184.517Z" transform="translate(-1149.803 -175.371)"/><path class="q" d="M1148.724,175.7v1.5a5.965,5.965,0,0,0,.763,2.919l4.488,8a.239.239,0,0,0,.449-.12c-.058-2.07.062-6.548,2.224-5.827,2.236.746,4.374,1.789,4.9,2.893a.594.594,0,0,0,.878.269l.156-.108a.583.583,0,0,0,.064-.9l-6.24-5.831a18.639,18.639,0,0,0-6.184-3.835h0A1.108,1.108,0,0,0,1148.724,175.7Z" transform="translate(-1148.724 -174.592)"/></g><g transform="translate(605.42 32.342)"><path class="o" d="M1174.448,191.265l.7.994a4.053,4.053,0,0,0,6.068.653h0a2.031,2.031,0,0,0-.021-3l-4.519-4.056Z" transform="translate(-1170.117 -181.407)"/><path class="s" d="M1181.5,189.907l-4.519-4.056-.348.844,3.818,3.427a2.03,2.03,0,0,1,.021,3,4.016,4.016,0,0,1-1.415.841,4.01,4.01,0,0,0,2.463-1.054A2.031,2.031,0,0,0,1181.5,189.907Z" transform="translate(-1170.423 -181.407)"/><path class="q" d="M1169.411,181.713v1.4a5.553,5.553,0,0,0,.708,2.713l4.171,7.44a.222.222,0,0,0,.417-.112c-.053-1.924.057-6.085,2.066-5.415,2.079.693,4.066,1.663,4.556,2.689a.553.553,0,0,0,.816.249l.145-.1a.542.542,0,0,0,.059-.84l-5.8-5.419a17.331,17.331,0,0,0-5.747-3.564h0A1.03,1.03,0,0,0,1169.411,181.713Z" transform="translate(-1169.411 -180.683)"/></g><path class="c" d="M1103.917,344.705l-.04.885a364.68,364.68,0,0,1-18.351,97.711c-3.033,9.206-10.725,33.157-9.09,39.5,4.672,18.132,15.129-4.164,15.129-4.164l33.653-51.814,12.853-28.049s-26.355-38.272-18.571-52.31c17.059-30.766,11.57-33.568,2.8-29.537A32.041,32.041,0,0,0,1103.917,344.705Z" transform="translate(-550.931 -167.23)"/><path class="c" d="M980.388,173.269c0,2.842-1.12,5.146-2.5,5.146s-7.792-2.3-7.792-5.146,6.41-5.147,7.792-5.147S980.388,170.426,980.388,173.269Z" transform="translate(-536.061 -146.58)"/><ellipse class="o" cx="2.502" cy="5.147" rx="2.502" ry="5.147" transform="translate(439.323 21.542)"/><path class="o" d="M696.246,163.013l20.4-1.715S711.5,154.054,696.246,163.013Z" transform="translate(-497.686 -145.236)"/><path class="o" d="M822.834,154.322l21.16-1.525S844.375,144.6,822.834,154.322Z" transform="translate(-515.425 -143.98)"/><path class="b" d="M1309.949,405.327s-42.033-42.319-105.512-17.157-81.208,81.78-81.208,81.78l2.625-129.536s.329-20.488,9.575-22.966,77.014-2.288,77.014-2.288l128.674,7.816-39.209.2a12.113,12.113,0,0,0-11.525,15.642l14.42,47.349Z" transform="translate(-557.519 -167.184)"/><path class="g" d="M1420.378,467.908s.858,4.289-1.715,6c0,0-37.172,11.723-52.327,10.58,0,0-13.841-3.458-20.074-5.733,0,0-18.294,12.957-.825,23.928,0,0,4.315,2.841,22.615.186,0,0,46.895-6.336,58.333-18.1C1426.383,484.779,1434.675,469.337,1420.378,467.908Z" transform="translate(-587.598 -188.589)"/><path class="t" d="M1360.455,488.246c18.585,1.4,64.171-12.975,64.171-12.975,1.839-1.226,2.247-3.52,2.268-5.225a10.649,10.649,0,0,0-5.919-2.138s.858,4.289-1.715,6c0,0-37.172,11.723-52.327,10.58,0,0-13.841-3.458-20.074-5.733a27.279,27.279,0,0,0-4.721,4.5C1350.279,485.7,1360.455,488.246,1360.455,488.246Z" transform="translate(-588.195 -188.589)"/><ellipse class="d" cx="7.413" cy="14.798" rx="7.413" ry="14.798" transform="translate(757.524 214.457)"/><g transform="translate(726.218 214.457)"><path class="b" d="M1356.027,407.274c0,8.172-3.319,14.8-7.413,14.8s-38.719-3.431-38.719-14.8c0-14.8,34.625-14.8,38.719-14.8S1356.027,399.1,1356.027,407.274Z" transform="translate(-1309.895 -392.476)"/><path class="c" d="M1348.617,392.476c-4.043,0-37.852,0-38.7,14.25,8.755-7.861,32.095-7.862,35.41-7.862,4.094,0,7.413,6.625,7.413,14.8a27.167,27.167,0,0,1-.851,6.874c2.451-2.415,4.14-7.438,4.14-13.262C1356.031,399.1,1352.712,392.476,1348.617,392.476Z" transform="translate(-1309.898 -392.476)"/><ellipse class="d" cx="7.413" cy="14.798" rx="7.413" ry="14.798" transform="translate(31.306 0)"/><path class="e" d="M1354.632,392.476a4.026,4.026,0,0,0-1.791.453c3.228,1.6,5.623,7.407,5.623,14.344s-2.395,12.743-5.623,14.344a4.014,4.014,0,0,0,1.791.453c4.095,0,7.413-6.625,7.413-14.8S1358.727,392.476,1354.632,392.476Z" transform="translate(-1315.913 -392.476)"/></g><g class="u" transform="translate(567.474 148.315)"><g transform="translate(13.276)"><path class="b" d="M1154.655,393.469a.86.86,0,0,1-.838-.672l-12.378-55.224a13.24,13.24,0,0,1,1.145-11.056c3.018-4.789,9.43-7.6,19.058-8.347l72.952-2.616a.86.86,0,0,1,.062,1.719l-72.916,2.614c-9.02.7-14.988,3.242-17.7,7.546a11.642,11.642,0,0,0-.972,9.585.861.861,0,0,1,.037.121l12.391,55.28a.86.86,0,0,1-.65,1.028A.9.9,0,0,1,1154.655,393.469Z" transform="translate(-1140.72 -315.555)"/></g><g transform="translate(0 24.055)"><path class="b" d="M1289.935,347.828h-.014l-163.793-2.578a.86.86,0,1,1,.027-1.72l163.793,2.578a.86.86,0,0,1-.013,1.72Z" transform="translate(-1125.281 -343.53)"/></g><g transform="translate(32.08 28.349)"><path class="b" d="M1282.581,351.673h-.01l-119.133-1.43a.86.86,0,0,1-.849-.87.837.837,0,0,1,.87-.85l119.132,1.43a.86.86,0,0,1-.009,1.72Z" transform="translate(-1162.589 -348.523)"/></g><g transform="translate(37.086 30.922)"><path class="b" d="M1290.07,355.238h-.015l-120.8-2a.86.86,0,0,1,.014-1.72h.015l120.8,2a.86.86,0,0,1-.014,1.72Z" transform="translate(-1168.411 -351.516)"/></g><g transform="translate(43.641 34.067)"><path class="b" d="M1294.187,359.461h-.018l-117.293-2.568a.86.86,0,0,1-.842-.879.873.873,0,0,1,.879-.841l117.293,2.568a.86.86,0,0,1-.019,1.72Z" transform="translate(-1176.034 -355.174)"/></g><g transform="translate(46.844 36.927)"><path class="b" d="M1294.709,362.377h-.016L1180.6,360.219a.86.86,0,0,1,.032-1.72l114.091,2.158a.86.86,0,0,1-.016,1.72Z" transform="translate(-1179.759 -358.499)"/></g><g transform="translate(43.641 40.358)"><path class="b" d="M1297.047,366.879h-.02l-120.152-2.669a.86.86,0,0,1,.019-1.72h.02l120.152,2.669a.86.86,0,0,1-.019,1.72Z" transform="translate(-1176.034 -362.49)"/></g></g><path class="b" d="M1093.522,490.6h0a34.066,34.066,0,0,0,34.406-19.224l3.691-7.751a97.274,97.274,0,0,1,51.926-48.585l.988-.392a43.675,43.675,0,0,1,30.91-.5h0a83.21,83.21,0,0,1,46.854,42.333l11.561,24.127,1.914,5.072A29.651,29.651,0,0,0,1297.3,504.2h0a9.864,9.864,0,0,0,9.349-2.993h0a17.5,17.5,0,0,0,4.546-10.794l.817-14.249a86.237,86.237,0,0,0-26.086-66.869h0A102.9,102.9,0,0,0,1207,380.555h0a112.286,112.286,0,0,0-43.048,11.987h0a131.736,131.736,0,0,0-70.432,98.055Z" transform="translate(-553.356 -176.312)"/><g transform="translate(540.166 204.889)"><path class="c" d="M1173.357,417.278l-.988.393a97.267,97.267,0,0,0-51.926,48.585l-3.691,7.751a34.063,34.063,0,0,1-22.76,18.467c-.163.956-.327,1.912-.469,2.875h0a34.066,34.066,0,0,0,34.406-19.224l3.691-7.751a97.274,97.274,0,0,1,51.926-48.585l.988-.392a43.669,43.669,0,0,1,18.586-3A43.67,43.67,0,0,0,1173.357,417.278Z" transform="translate(-1093.522 -385.953)"/><path class="c" d="M1307.823,409.441h0a102.888,102.888,0,0,0-58.023-28.092,102.878,102.878,0,0,1,46.847,25.975h0a86.238,86.238,0,0,1,26.087,66.868l-.818,14.249a17.49,17.49,0,0,1-4.546,10.795h0a9.833,9.833,0,0,1-4.743,2.86,29.6,29.6,0,0,0,6.57,2.251h0a9.865,9.865,0,0,0,9.349-2.993h0a17.5,17.5,0,0,0,4.546-10.794l.817-14.249A86.235,86.235,0,0,0,1307.823,409.441Z" transform="translate(-1115.421 -381.349)"/></g><g transform="translate(27.562 126.431)"><path class="g" d="M868.54,300.029h-.031l-369.438-6.485a1.72,1.72,0,0,1,.029-3.439h.031L868.57,296.59a1.719,1.719,0,0,1-.03,3.439Z" transform="translate(-497.382 -290.104)"/></g><g transform="translate(24.131 146.254)"><path class="g" d="M867.981,329.555h-.06L495.052,316.6a1.72,1.72,0,0,1,.12-3.438L868.04,326.116a1.72,1.72,0,0,1-.059,3.439Z" transform="translate(-493.392 -313.158)"/></g><g transform="translate(4.194 197.358)"><path class="g" d="M874.956,406.136c-.043,0-.087,0-.13-.005L471.8,376.024a1.719,1.719,0,1,1,.256-3.429L875.082,402.7a1.72,1.72,0,0,1-.126,3.435Z" transform="translate(-470.205 -372.59)"/></g><g transform="translate(153.351 232.691)"><path class="g" d="M899.9,436.732a1.714,1.714,0,0,1-1.711,1.574.883.883,0,0,1-.146-.009L648.58,417.454l-2.992-.249a31.854,31.854,0,0,0-1.917-3.267,1.7,1.7,0,0,1,1.058-.249l1.943.163,251.667,21.024A1.717,1.717,0,0,1,899.9,436.732Z" transform="translate(-643.67 -413.681)"/></g><g transform="translate(1.026 216.035)"><path class="g" d="M565.586,405.118v.017c-.516.49-1.015,1-1.5,1.522a.567.567,0,0,1-.206.026c-.052,0-.1-.009-.155-.009l-2.855-.267-92.789-8.667a1.719,1.719,0,0,1,.327-3.422l95.446,8.908.189.017A1.723,1.723,0,0,1,565.586,405.118Z" transform="translate(-466.522 -394.311)"/></g><g transform="translate(143.076 219.11)"><path class="g" d="M897.141,422.76q-.07,0-.142-.005L633.3,401.322a1.719,1.719,0,0,1-1.574-1.853,1.694,1.694,0,0,1,1.853-1.575l263.7,21.432a1.72,1.72,0,0,1-.138,3.433Z" transform="translate(-631.72 -397.887)"/></g><g transform="translate(2.78 207.703)"><path class="g" d="M574.7,396.554c-.046,0-.1,0-.148-.006l-104.413-8.493a1.719,1.719,0,1,1,.279-3.427l104.4,8.491a1.72,1.72,0,0,1-.115,3.435Z" transform="translate(-468.561 -384.621)"/></g><g transform="translate(111.413 133.188)"><path class="g" d="M594.9,309.447l.358-3.108,1.03.041c.118,2.014,1.153,3.508,3.116,3.587,1.379.054,2.384-.516,2.588-1.62.214-1.158-.51-1.69-2.556-2.381-2.456-.8-3.66-2.011-3.262-4.167.457-2.476,2.8-3.944,5.678-3.831a6.87,6.87,0,0,1,4,1.236l-.5,2.709-.874-.035c-.115-1.818-.973-3-2.781-3.071a2.06,2.06,0,0,0-2.306,1.577c-.214,1.158.475,1.671,2.374,2.3,2.449.833,3.985,1.845,3.525,4.34-.506,2.743-3.129,3.913-6.044,3.8A7.4,7.4,0,0,1,594.9,309.447Z" transform="translate(-594.898 -297.963)"/><path class="g" d="M626.512,300.017l-.517,3.12-.953-.038c-.094-2.139-.911-3.338-2.718-3.409-2.428-.1-3.875,2.233-4.431,5.243-.6,3.26.2,5.7,2.591,5.791,1.612.064,3.05-.937,4.327-3.615l.972.039-.984,3.532a9.953,9.953,0,0,1-4.974.969c-4.431-.175-6.74-2.618-6.046-6.377a8.117,8.117,0,0,1,8.594-6.478A7.461,7.461,0,0,1,626.512,300.017Z" transform="translate(-597.527 -298.078)"/><path class="g" d="M639.432,305.292l4.936.2.678-3.67c.17-.926.08-1.073-1.2-1.249l.138-.749,6.626.263-.138.749c-1.306.073-1.448.212-1.619,1.138l-1.592,8.623c-.17.926-.081,1.073,1.179,1.249l-.138.748-6.626-.262.138-.748c1.324-.074,1.467-.212,1.638-1.138l.71-3.848-4.936-.2-.71,3.848c-.17.926-.08,1.073,1.179,1.249l-.138.748-6.626-.262.138-.748c1.325-.074,1.468-.212,1.639-1.138l1.592-8.623c.17-.926.08-1.073-1.2-1.249l.138-.749,6.626.263-.138.748c-1.305.074-1.448.212-1.619,1.138Z" transform="translate(-600.228 -298.174)"/><path class="g" d="M658.244,306.944a7.7,7.7,0,0,1,8.15-6.407c4.313.171,6.038,3.129,5.427,6.443a7.684,7.684,0,0,1-8.151,6.406C659.356,313.215,657.631,310.258,658.244,306.944Zm9.469.34c.586-3.171.291-5.821-1.749-5.9-1.962-.077-3.129,2.64-3.612,5.259-.586,3.17-.291,5.82,1.748,5.9C666.061,312.619,667.229,309.9,667.712,307.283Z" transform="translate(-603.758 -298.323)"/><path class="g" d="M680.432,307.823a7.7,7.7,0,0,1,8.151-6.406c4.313.171,6.037,3.129,5.426,6.443a7.682,7.682,0,0,1-8.149,6.406C681.545,314.095,679.82,311.138,680.432,307.823Zm9.47.341c.585-3.171.292-5.821-1.749-5.9-1.962-.077-3.129,2.64-3.612,5.258-.586,3.171-.292,5.821,1.748,5.9C688.25,313.5,689.418,310.782,689.9,308.163Z" transform="translate(-606.867 -298.446)"/><path class="g" d="M706.613,312.856c-.177.961.207,1.211,1.277,1.253l.543.022c1.3.052,2.129-.616,4.355-3.237l.836.034-1.518,4.193-11.095-.44.138-.748c1.325-.073,1.468-.211,1.639-1.137l1.591-8.624c.171-.926.081-1.073-1.2-1.249l.138-.749,6.625.262-.138.749c-1.305.074-1.449.212-1.619,1.138Z" transform="translate(-609.768 -298.553)"/><path class="g" d="M729.414,315.806l.138-.748c1.325-.074,1.468-.212,1.639-1.138l1.591-8.623c.171-.926.081-1.073-1.2-1.249l.138-.749,7.054.279c3.011.12,4.586,1.241,4.2,3.308-.332,1.8-2.268,2.638-4.185,2.741,2.571.173,4.313,1.337,3.952,3.3-.425,2.3-2.51,3.31-6.085,3.169Zm7.38-11.462-.875,4.739.486.02a2.593,2.593,0,0,0,2.954-2.323c.292-1.586-.544-2.354-2.1-2.416Zm-1.052,5.7-.723,3.919c-.177.962.126,1.225,1.137,1.266l.156.006c1.341.053,2.424-.729,2.753-2.512.3-1.621-.5-2.568-2.467-2.645Z" transform="translate(-613.748 -298.711)"/><path class="g" d="M756.227,312.172c-.377,2.048.241,3.365,2.359,3.449,1.787.071,3.373-.782,3.837-3.293l1.072-5.808c.17-.926-.029-1.114-1.584-1.283l.138-.749,4.507.179-.138.749c-1.305.073-1.451.23-1.623,1.156l-1.134,6.146c-.579,3.135-3.255,4.483-6.267,4.363-3.73-.148-5.587-1.747-5.023-4.811l1.138-6.164c.171-.926.1-1.072-1.178-1.249l.138-.749,6.625.263-.138.749c-1.325.072-1.468.211-1.639,1.137Z" transform="translate(-616.951 -298.824)"/><path class="g" d="M772.429,316.488l.358-3.108,1.03.041c.118,2.015,1.153,3.508,3.115,3.586,1.379.054,2.385-.516,2.589-1.62.213-1.157-.51-1.69-2.555-2.38-2.456-.8-3.661-2.012-3.262-4.168.457-2.476,2.8-3.944,5.678-3.83a6.866,6.866,0,0,1,4,1.235l-.5,2.709-.874-.034c-.114-1.818-.973-3-2.78-3.072a2.06,2.06,0,0,0-2.306,1.578c-.214,1.157.475,1.67,2.373,2.3,2.45.833,3.985,1.845,3.526,4.34-.507,2.743-3.13,3.913-6.044,3.8A7.4,7.4,0,0,1,772.429,316.488Z" transform="translate(-619.775 -298.949)"/></g><path class="h" d="M609.114,347.705a6.049,6.049,0,0,1-5.657,5.669,23.949,23.949,0,0,1,.716-11.971,6.048,6.048,0,0,1,4.941,6.3m3.624-1.684a1.9,1.9,0,0,0-2.01,1.777v.009a1.9,1.9,0,0,0,1.779,2.006h0a1.9,1.9,0,0,0,2.008-1.779h0a1.9,1.9,0,0,0-1.781-2.008h0m26.029,3.458a6.05,6.05,0,0,0,4.941,6.3,23.937,23.937,0,0,0,.715-11.971,6.046,6.046,0,0,0-5.656,5.668m-3.4-2.1a1.9,1.9,0,0,0-2.007,1.78h0a1.9,1.9,0,0,0,1.779,2.006h0a1.9,1.9,0,1,0,.227-3.787m-12.36,16.094a6.053,6.053,0,0,0-6.3,4.942,23.953,23.953,0,0,0,11.977.716,6.052,6.052,0,0,0-5.674-5.658m.323-5.406a1.9,1.9,0,0,0-2.007,1.781h0a1.9,1.9,0,0,0,1.779,2.008h0a1.9,1.9,0,0,0,.227-3.789m1.451-24.263a6.05,6.05,0,0,0,6.3-4.942,23.969,23.969,0,0,0-11.977-.716,6.051,6.051,0,0,0,5.674,5.658m-.1,1.618a1.9,1.9,0,0,0-2.006,1.778v0a1.9,1.9,0,0,0,1.779,2.005h0a1.9,1.9,0,0,0,.228-3.786h0m9.086,24.3a6.05,6.05,0,0,0-.969,7.949,24.029,24.029,0,0,0,8.974-7.965,6.054,6.054,0,0,0-8.005.016m-3.593-4.05a1.9,1.9,0,0,0,2.516,2.841l0,0a1.9,1.9,0,1,0-2.519-2.838M614.054,337.5a6.049,6.049,0,0,0,.969-7.948,24.028,24.028,0,0,0-8.975,7.964,6.048,6.048,0,0,0,8.006-.016m1.076,1.212a1.9,1.9,0,0,0,2.516,2.84l0,0a1.9,1.9,0,0,0,.162-2.676l0,0a1.9,1.9,0,0,0-2.678-.16m19.884.022a6.049,6.049,0,0,0,7.947.969A24.024,24.024,0,0,0,635,330.726a6.05,6.05,0,0,0,.015,8.007m-1.372,3.753a1.9,1.9,0,1,0-2.679-.16,1.9,1.9,0,0,0,2.679.16m-20.852,15.96a6.05,6.05,0,0,0-7.946-.972,24.01,24.01,0,0,0,7.962,8.978,6.048,6.048,0,0,0-.016-8.006m1.372-3.754a1.9,1.9,0,1,0,2.679.161,1.9,1.9,0,0,0-2.679-.161m58.05,1.862-4.4-.263-.186,3.107c-.112,1.857-1.056,2.372-2.459,2.288s-2.279-.708-2.169-2.565l.872-14.567c.111-1.859,1.056-2.373,2.458-2.29s2.28.708,2.169,2.567l-.147,2.46,4.4.264.188-3.145c.236-3.944-2.318-5.771-6.338-6.011l-.077,0c-4.019-.241-6.774,1.269-7.01,5.213l-.954,15.928c-.247,4.135,2.32,5.771,6.339,6.011l.076,0c4.02.241,6.765-1.118,7.01-5.213Zm16,10.087,4.475.267-3.418-26.844-5.536-.332-6.518,26.25,4.244.255,1.3-5.859,4.854.29Zm-4.662-9.87,2.563-11.682,1.154,11.9ZM702.7,367.508l1.032-17.255,4.771,17.6,4.171.249,1.589-26.554-4.019-.24-.983,16.421-4.593-16.755-4.4-.263-1.588,26.554ZM735.127,342.8l-4.244-.255-4.253,19.5-1.894-19.871-4.476-.268,3.418,26.846,4.854.291Zm12.484,27.4,4.476.267-3.418-26.844-5.538-.331-6.518,26.25,4.244.254,1.3-5.859,4.854.291Zm-4.661-9.87,2.563-11.682,1.153,11.9Zm28.429-7.552.156-2.611c.236-3.944-2.556-5.634-6.2-5.851l-.077,0c-3.64-.218-6.612,1.126-6.848,5.071l-.209,3.489c-.166,2.768,1.24,4.07,3.732,5.7l2.967,1.925a2.709,2.709,0,0,1,1.575,2.872l-.125,2.085a2.3,2.3,0,0,1-4.585.184,2.075,2.075,0,0,1,.035-.456l.132-2.211-4.323-.258-.168,2.811c-.248,4.135,2.208,5.688,6.229,5.928l.076.005c4.02.24,6.647-1.049,6.892-5.144l.229-3.831c.17-2.844-1.277-4.111-3.732-5.7l-3-1.927a2.681,2.681,0,0,1-1.544-2.795l.108-1.818a2.273,2.273,0,0,1,4.51-.255,2.052,2.052,0,0,1-.036.523l-.12,2.005Z" transform="translate(-484.622 -168.942)"/><path class="v" d="M537.957,183.9l12.966-7.236a53.618,53.618,0,0,1,22.456-6.672l331.473-22.741A445.579,445.579,0,0,1,983,148.759l32.667,3.513s-15.363,6.665-17.5,11.959c-1,2.479-17.324,1-34.405-1.279a440.541,440.541,0,0,0-89.088-2.733Z" transform="translate(-475.506 -143.509)"/><path class="w" d="M1128.217,169.286l8.292,8.2,2.894,1.147-5.013-5.18a17.991,17.991,0,0,0-6.173-4.164Z" transform="translate(-558.218 -146.743)"/><path class="w" d="M1151.155,175.271l6.716,7.255,2.343,1.015-4.132-4.665a14.345,14.345,0,0,0-4.927-3.6Z" transform="translate(-561.432 -147.582)"/><path class="w" d="M1172.456,181.646l5.838,6.344,2.037.887-3.6-4.085a12.47,12.47,0,0,0-4.279-3.146Z" transform="translate(-564.417 -148.475)"/><path class="x" d="M1130.376,323.16,1285.6,333.988s3.05-10.828,25.637-12.613l-102.954-6.219Z" transform="translate(-558.521 -167.184)"/><path class="y" d="M1371.82,334.869l-35.985,11.722,46.688,0S1376.774,333.255,1371.82,334.869Z" transform="translate(-587.312 -169.927)"/></g></g></svg>